<svg width="102" height="30" viewBox="0 0 102 30" fill="none" xmlns="http://www.w3.org/2000/svg">
<path d="M0.679504 5.87427H4.19756V13.6606H11.6176V5.87518H15.1403V24.988H11.6176V17.0377H4.19756V24.988H0.679504V5.87427ZM26.286 18.7615C26.2847 19.5315 25.9773 20.2696 25.4311 20.8139C24.8849 21.3582 24.1445 21.6643 23.3723 21.665C22.6 21.6645 21.8593 21.3585 21.3129 20.8142C20.7665 20.2699 20.459 19.5316 20.4578 18.7615V10.5336H17.1197V18.7624C17.1197 22.1953 19.9241 24.988 23.3705 24.988C26.8169 24.988 29.6203 22.1953 29.6203 18.7624V10.5336H26.286V18.7624V18.7615ZM38.9362 10.6298C37.281 10.6298 36.1255 11.1079 35.0094 12.1988V5.87427H31.6622V17.5955C31.6622 21.9828 34.8469 24.9871 38.4246 24.9871C42.4019 24.9871 45.8869 21.9297 45.8869 17.8089C45.8869 13.7403 42.6729 10.6298 38.9362 10.6298ZM39.0189 21.9031C36.7501 21.9031 35.0168 20.0163 35.0168 17.8089C35.0168 15.6015 36.751 13.7147 39.0189 13.7147C40.9414 13.7147 42.6766 15.6015 42.6766 17.8089C42.6766 20.0163 40.9405 21.9031 39.0189 21.9031ZM51.5085 11.4697C51.5085 9.79355 52.6291 9.26231 53.8572 9.26231C54.8456 9.26231 56.1536 10.007 57.006 10.911L59.1949 8.35828C58.1009 6.89645 55.8863 5.88526 54.0712 5.88526C50.4402 5.88526 47.8251 7.98641 47.8251 11.4697C47.8251 17.9307 55.8054 15.8827 55.8054 19.4997C55.8054 20.6153 54.7124 21.5999 53.4576 21.5999C51.4827 21.5999 50.8407 20.6428 49.9341 19.6316L47.5045 22.1312C49.0532 24.0189 50.9748 24.977 53.2702 24.977C56.713 24.977 59.4888 22.8493 59.4888 19.5254C59.4888 12.3463 51.5085 14.5802 51.5085 11.4697ZM68.3014 10.442C64.7246 10.442 61.54 13.4454 61.54 17.8336V29.5851H64.8872V23.2312C66.0032 24.3212 67.1578 24.8011 68.813 24.8011C72.5497 24.8011 75.7637 21.6906 75.7637 17.622C75.7637 13.5003 72.2778 10.4429 68.3014 10.4429V10.442ZM68.8966 21.7163C66.6278 21.7163 64.8936 19.8267 64.8936 17.6211C64.8936 15.4137 66.6287 13.526 68.8966 13.526C70.8182 13.526 72.5534 15.4128 72.5534 17.6202C72.5534 19.8267 70.8173 21.7163 68.8966 21.7163ZM100.403 21.9031C98.4281 21.9031 97.8677 21.0522 97.8677 19.7488V13.9803H100.937V11.0566H97.8677V7.20054L94.4792 8.7155V20.4679C94.4792 23.4721 96.5606 24.9889 99.4146 24.9889C99.8417 24.9889 100.43 24.9614 100.751 24.8827L101.578 21.8509C101.205 21.8775 100.778 21.904 100.403 21.904V21.9031Z" fill="#050038"/>
<path d="M91.5766 14.1525C90.9336 13.0524 90.0316 12.1704 88.9036 11.5072C88.0744 11.0185 87.1551 10.7011 86.2003 10.5739V7.07961C86.678 6.88216 87.0854 6.54653 87.3699 6.11602C87.6545 5.68551 87.8031 5.17986 87.7968 4.66429C87.7968 3.19696 86.6164 2.00808 85.1449 2.00808C84.4373 2.00735 83.7583 2.28664 83.2569 2.78465C82.7556 3.28266 82.4729 3.95867 82.471 4.66429C82.471 5.74051 83.0469 6.66286 84.0325 7.07961V10.5757C83.214 10.6934 82.4197 10.9414 81.6801 11.3103C78.5308 8.92649 75.3807 6.54353 72.2301 4.16144C72.3065 3.90935 72.3479 3.64802 72.3532 3.38473C72.3532 2.99823 72.2768 2.61552 72.1284 2.25846C71.98 1.9014 71.7625 1.577 71.4884 1.30379C71.2142 1.03058 70.8887 0.813909 70.5306 0.666169C70.1724 0.518428 69.7885 0.442509 69.4009 0.44275C69.0135 0.44281 68.6298 0.518966 68.2719 0.66687C67.914 0.814774 67.5887 1.03153 67.3148 1.30476C67.0409 1.57799 66.8236 1.90235 66.6754 2.25931C66.5272 2.61627 66.4509 2.99884 66.451 3.38519C66.4511 3.77154 66.5274 4.15409 66.6758 4.511C66.8241 4.86792 67.0415 5.1922 67.3155 5.46535C67.5895 5.73849 67.9148 5.95515 68.2728 6.10294C68.6307 6.25073 69.0144 6.32677 69.4019 6.32671C69.9585 6.32671 70.4738 6.16459 70.9175 5.89805L71.5347 6.36518L80.0166 12.4516C79.557 12.8643 79.1534 13.3351 78.8161 13.852C78.1391 14.9191 77.7258 16.0933 77.7258 17.3738V17.6403C77.7258 18.5398 77.8975 19.3879 78.1896 20.1857C78.4468 20.8818 78.8225 21.5138 79.2882 22.0872L76.4738 24.8982C76.0659 24.7471 75.623 24.7161 75.1979 24.809C74.7728 24.9019 74.3835 25.1147 74.0764 25.4221C73.8638 25.6326 73.6952 25.883 73.5804 26.159C73.4656 26.4349 73.4069 26.7308 73.4077 27.0296C73.4077 27.6368 73.6465 28.2075 74.0773 28.637C74.2886 28.8489 74.54 29.0168 74.8169 29.1311C75.0937 29.2454 75.3906 29.3038 75.6903 29.3029C75.9902 29.3038 76.2873 29.2454 76.5645 29.1311C76.8416 29.0168 77.0933 28.8489 77.3051 28.637C77.6009 28.3439 77.81 27.975 77.9094 27.571C78.0087 27.1671 77.9944 26.7436 77.8681 26.3472L80.7772 23.4483C81.1758 23.7231 81.6066 23.9539 82.0705 24.1535C82.9836 24.5474 83.9921 24.7865 85.0953 24.7865H85.2974C86.5035 24.7924 87.6914 24.4933 88.7502 23.9172C89.861 23.324 90.7945 22.4484 91.4563 21.3792C92.1332 20.2984 92.5071 19.1058 92.5071 17.7924V17.7273C92.5071 16.4359 92.2067 15.2442 91.5766 14.1525ZM88.0218 20.2324C87.2319 21.1071 86.3234 21.6457 85.2974 21.6457H85.1284C84.5423 21.6457 83.9692 21.4836 83.4079 21.1905C82.775 20.8672 82.2946 20.4065 81.9015 19.823C81.4937 19.2496 81.2732 18.624 81.2732 17.9609V17.7594C81.2732 17.1082 81.3991 16.4899 81.715 15.9056C82.0405 15.282 82.5245 14.7545 83.1186 14.3759C83.6928 13.9908 84.3702 13.7874 85.0622 13.7925H85.1284C85.7714 13.7925 86.3813 13.9189 86.9563 14.212C87.5378 14.517 88.0319 14.9646 88.392 15.5126C88.753 16.075 88.967 16.6813 89.0359 17.3417C89.0469 17.4791 89.0524 17.6193 89.0524 17.7539C89.0524 18.6497 88.7089 19.4795 88.0209 20.2324H88.0218Z" fill="#050038"/>
</svg>
