<svg width="131" height="20" viewBox="0 0 131 20" fill="none" xmlns="http://www.w3.org/2000/svg">
<path fill-rule="evenodd" clip-rule="evenodd" d="M46.4471 0.543887C46.4471 0.580158 46.2571 0.606929 46.0024 0.606929C45.7485 0.606929 45.5585 0.634564 45.5585 0.670835C45.5585 0.705379 45.4151 0.733877 45.2407 0.733877C45.0662 0.733877 44.9229 0.762376 44.9229 0.797783C44.9229 0.832327 44.8089 0.860826 44.669 0.860826C44.5299 0.860826 44.4151 0.889325 44.4151 0.924732C44.4151 0.959276 44.3296 0.987774 44.2251 0.987774C44.1206 0.987774 44.0351 1.01627 44.0351 1.05168C44.0351 1.08622 43.9487 1.11472 43.8442 1.11472C43.7389 1.11472 43.6542 1.14322 43.6542 1.17863C43.6542 1.21317 43.5679 1.24167 43.4634 1.24167C43.358 1.24167 43.2725 1.27017 43.2725 1.30558C43.2725 1.34012 43.2155 1.36862 43.1456 1.36862C43.0765 1.36862 43.0186 1.39798 43.0186 1.43253C43.0186 1.46707 42.9616 1.49557 42.8917 1.49557C42.8226 1.49557 42.7647 1.52493 42.7647 1.55947C42.7647 1.59402 42.7077 1.62252 42.6378 1.62252C42.5678 1.62252 42.5108 1.65188 42.5108 1.68642C42.5108 1.72097 42.4538 1.75033 42.3839 1.75033C42.3139 1.75033 42.2569 1.77883 42.2569 1.81337C42.2569 1.84792 42.2051 1.87728 42.1438 1.87728C42.0816 1.87728 41.9901 1.93427 41.9391 2.00423C41.8891 2.07331 41.8036 2.13117 41.7492 2.13117C41.6947 2.13117 41.6084 2.18817 41.5592 2.25812C41.5073 2.32721 41.427 2.38507 41.3795 2.38507C41.3312 2.38507 41.212 2.47057 41.1144 2.57506C41.016 2.68042 40.9046 2.76505 40.8657 2.76505C40.7733 2.76505 39.4632 4.07599 39.4632 4.16753C39.4632 4.20639 39.3769 4.31866 39.2732 4.41625C39.1679 4.51383 39.0824 4.63387 39.0824 4.68137C39.0824 4.72973 39.0254 4.81091 38.9554 4.861C38.8863 4.91109 38.8285 5.00349 38.8285 5.06567C38.8285 5.12699 38.8 5.17794 38.7646 5.17794C38.73 5.17794 38.7015 5.23494 38.7015 5.30489C38.7015 5.37484 38.673 5.43184 38.6376 5.43184C38.6031 5.43184 38.5746 5.4897 38.5746 5.55878C38.5746 5.62874 38.5461 5.68573 38.5107 5.68573C38.4761 5.68573 38.4476 5.74359 38.4476 5.81268C38.4476 5.88263 38.4191 5.94049 38.3837 5.94049C38.3492 5.94049 38.3207 5.99749 38.3207 6.06744C38.3207 6.13653 38.2922 6.19439 38.2568 6.19439C38.2222 6.19439 38.1937 6.27989 38.1937 6.38438C38.1937 6.48888 38.1652 6.57437 38.1298 6.57437C38.0953 6.57437 38.0668 6.63223 38.0668 6.70218C38.0668 6.77127 38.0383 6.82913 38.0029 6.82913C37.9683 6.82913 37.9398 6.91463 37.9398 7.01912C37.9398 7.12448 37.9113 7.20912 37.8759 7.20912C37.8414 7.20912 37.8129 7.29547 37.8129 7.39997C37.8129 7.50533 37.7844 7.58996 37.749 7.58996C37.7144 7.58996 37.6859 7.73332 37.6859 7.90776C37.6859 8.08307 37.6574 8.22557 37.622 8.22557C37.5858 8.22557 37.559 8.41556 37.559 8.67032C37.559 8.92421 37.5314 9.11421 37.4951 9.11421C37.4554 9.11421 37.432 9.51664 37.432 10.1937C37.432 10.8708 37.4554 11.2732 37.4951 11.2732C37.5322 11.2732 37.559 11.4848 37.559 11.781C37.559 12.0772 37.5849 12.2888 37.622 12.2888C37.6566 12.2888 37.6859 12.4028 37.6859 12.5427C37.6859 12.6826 37.7144 12.7966 37.749 12.7966C37.7835 12.7966 37.8129 12.9114 37.8129 13.0505C37.8129 13.1904 37.8414 13.3044 37.8759 13.3044C37.9105 13.3044 37.9398 13.3907 37.9398 13.4944C37.9398 13.5997 37.9683 13.6852 38.0029 13.6852C38.0374 13.6852 38.0668 13.7422 38.0668 13.8122C38.0668 13.8821 38.0953 13.9391 38.1298 13.9391C38.1644 13.9391 38.1937 14.0255 38.1937 14.13C38.1937 14.2345 38.2222 14.32 38.2568 14.32C38.2913 14.32 38.3207 14.3778 38.3207 14.4469C38.3207 14.5169 38.3492 14.5747 38.3837 14.5747C38.4183 14.5747 38.4476 14.6317 38.4476 14.7017C38.4476 14.7708 38.4761 14.8286 38.5107 14.8286C38.5452 14.8286 38.5746 14.8856 38.5746 14.9556C38.5746 15.0247 38.6031 15.0825 38.6376 15.0825C38.6722 15.0825 38.7015 15.1335 38.7015 15.1948C38.7015 15.257 38.7585 15.3494 38.8285 15.3995C38.8976 15.4504 38.9554 15.5359 38.9554 15.5894C38.9554 15.6447 39.0124 15.7302 39.0824 15.7803C39.1515 15.8313 39.2093 15.9107 39.2093 15.9582C39.2093 16.0057 39.3233 16.1542 39.4632 16.289C39.6031 16.4228 39.7171 16.5636 39.7171 16.6024C39.7171 16.6931 40.5194 17.4945 40.6101 17.4945C40.6481 17.4945 40.7897 17.6094 40.9236 17.7484C41.0574 17.8883 41.206 18.0023 41.2534 18.0023C41.3009 18.0023 41.3813 18.0593 41.4314 18.1293C41.4814 18.1992 41.5678 18.2562 41.6213 18.2562C41.6766 18.2562 41.7621 18.3141 41.8122 18.3832C41.8623 18.4531 41.9547 18.511 42.0169 18.511C42.079 18.511 42.1291 18.5395 42.1291 18.574C42.1291 18.6086 42.181 18.6371 42.2431 18.6371C42.3053 18.6371 42.3968 18.6949 42.4469 18.7649C42.5013 18.8392 42.611 18.8918 42.7147 18.8918C42.8122 18.8918 42.8917 18.9203 42.8917 18.9549C42.8917 18.9894 42.9487 19.0188 43.0186 19.0188C43.0877 19.0188 43.1456 19.0473 43.1456 19.0818C43.1456 19.1164 43.2026 19.1457 43.2725 19.1457C43.3416 19.1457 43.3995 19.1742 43.3995 19.2088C43.3995 19.2433 43.4858 19.2727 43.5895 19.2727C43.6948 19.2727 43.7803 19.3012 43.7803 19.3357C43.7803 19.3703 43.8667 19.3996 43.9703 19.3996C44.0757 19.3996 44.1612 19.4281 44.1612 19.4627C44.1612 19.4972 44.276 19.5266 44.4151 19.5266C44.555 19.5266 44.669 19.5551 44.669 19.5896C44.669 19.6242 44.7838 19.6535 44.9229 19.6535C45.0628 19.6535 45.1768 19.682 45.1768 19.7166C45.1768 19.7511 45.3201 19.7805 45.4946 19.7805C45.669 19.7805 45.8124 19.809 45.8124 19.8435C45.8124 19.8841 46.4048 19.9074 47.4627 19.9074C48.5206 19.9074 49.113 19.8841 49.113 19.8435C49.113 19.809 49.2832 19.7805 49.4939 19.7805C49.7063 19.7805 49.8756 19.752 49.8756 19.7166C49.8756 19.682 49.9896 19.6535 50.1295 19.6535C50.2685 19.6535 50.3834 19.625 50.3834 19.5896C50.3834 19.5551 50.4974 19.5266 50.6373 19.5266C50.7763 19.5266 50.8912 19.4981 50.8912 19.4627C50.8912 19.4281 50.9775 19.3996 51.0812 19.3996C51.1865 19.3996 51.2712 19.3711 51.2712 19.3357C51.2712 19.3012 51.3575 19.2727 51.4629 19.2727C51.5665 19.2727 51.6529 19.2442 51.6529 19.2088C51.6529 19.1742 51.7392 19.1457 51.8429 19.1457C51.9482 19.1457 52.0337 19.1172 52.0337 19.0818C52.0337 19.0473 52.0907 19.0188 52.1607 19.0188C52.2306 19.0188 52.2876 18.9894 52.2876 18.9549C52.2876 18.9203 52.3446 18.8918 52.4146 18.8918C52.4845 18.8918 52.5415 18.8625 52.5415 18.8279C52.5415 18.7934 52.5985 18.7649 52.6685 18.7649C52.7384 18.7649 52.7954 18.7355 52.7954 18.701C52.7954 18.6664 52.8533 18.6379 52.9223 18.6379C52.9923 18.6379 53.0493 18.6086 53.0493 18.574C53.0493 18.5395 53.1011 18.511 53.1624 18.511C53.2246 18.511 53.317 18.4531 53.3671 18.3832C53.4172 18.3141 53.5096 18.2562 53.5718 18.2562C53.6339 18.2562 53.684 18.2277 53.684 18.1932C53.684 18.1586 53.7359 18.1293 53.7972 18.1293C53.8593 18.1293 53.9518 18.0723 54.0018 18.0023C54.0519 17.9332 54.1331 17.8754 54.1806 17.8754C54.229 17.8754 54.3481 17.7899 54.4466 17.6854C54.5442 17.58 54.6564 17.4954 54.6962 17.4954C54.8033 17.4954 55.3352 16.941 55.3352 16.8304C55.3352 16.7769 55.3067 16.7328 55.2713 16.7328C55.2368 16.7328 55.2083 16.6871 55.2083 16.6318C55.2083 16.5757 55.1219 16.4504 55.0183 16.352C54.9129 16.2544 54.8274 16.1396 54.8274 16.0981C54.8274 16.0558 54.7411 15.9427 54.6374 15.8442C54.5321 15.7466 54.4466 15.6266 54.4466 15.5791C54.4466 15.5307 54.3896 15.4495 54.3196 15.3995C54.2497 15.3494 54.1927 15.2639 54.1927 15.2095C54.1927 15.1551 54.1357 15.0696 54.0658 15.0195C53.9958 14.9677 53.9388 14.8899 53.9388 14.8442C53.9388 14.7984 53.8378 14.6594 53.7143 14.5359L53.4897 14.3113L53.3084 14.5065C53.2073 14.6136 53.0864 14.7017 53.0381 14.7017C52.9897 14.7017 52.9094 14.7587 52.8593 14.8286C52.8083 14.8977 52.7229 14.9556 52.6693 14.9556C52.614 14.9556 52.5285 15.0126 52.4785 15.0825C52.4275 15.1516 52.336 15.2095 52.2738 15.2095C52.2116 15.2095 52.1615 15.238 52.1615 15.2725C52.1615 15.307 52.1037 15.3364 52.0337 15.3364C51.9646 15.3364 51.9068 15.3649 51.9068 15.3995C51.9068 15.434 51.8498 15.4634 51.7798 15.4634C51.7107 15.4634 51.6529 15.4919 51.6529 15.5264C51.6529 15.5609 51.5959 15.5903 51.5259 15.5903C51.4568 15.5903 51.399 15.6188 51.399 15.6533C51.399 15.6879 51.342 15.7173 51.272 15.7173C51.2029 15.7173 51.1451 15.7458 51.1451 15.7803C51.1451 15.8148 51.0881 15.8442 51.0181 15.8442C50.9482 15.8442 50.8912 15.8727 50.8912 15.9072C50.8912 15.9418 50.8342 15.9712 50.7642 15.9712C50.6943 15.9712 50.6373 15.9997 50.6373 16.0342C50.6373 16.0687 50.5509 16.0981 50.4473 16.0981C50.3419 16.0981 50.2564 16.1266 50.2564 16.1611C50.2564 16.1957 50.1701 16.225 50.0664 16.225C49.9611 16.225 49.8756 16.2535 49.8756 16.2881C49.8756 16.3226 49.7607 16.352 49.6217 16.352C49.4818 16.352 49.3678 16.3805 49.3678 16.415C49.3678 16.4496 49.2244 16.4789 49.05 16.4789C48.8755 16.4789 48.7322 16.5074 48.7322 16.542C48.7322 16.5826 48.309 16.6059 47.5896 16.6059C46.8703 16.6059 46.4471 16.5826 46.4471 16.5429C46.4471 16.5083 46.3038 16.4789 46.1293 16.4789C45.9549 16.4789 45.8124 16.4504 45.8124 16.415C45.8124 16.3805 45.726 16.352 45.6224 16.352C45.517 16.352 45.4315 16.3235 45.4315 16.289C45.4315 16.2535 45.3452 16.225 45.2407 16.225C45.1362 16.225 45.0507 16.1966 45.0507 16.1611C45.0507 16.1266 44.9928 16.0981 44.9229 16.0981C44.8538 16.0981 44.7959 16.0696 44.7959 16.0342C44.7959 15.9997 44.7389 15.9712 44.669 15.9712C44.5999 15.9712 44.542 15.9427 44.542 15.9072C44.542 15.8727 44.485 15.8442 44.4151 15.8442C44.346 15.8442 44.2881 15.8157 44.2881 15.7803C44.2881 15.7458 44.2372 15.7173 44.1759 15.7173C44.1128 15.7173 44.0213 15.6603 43.9712 15.5903C43.9202 15.5204 43.8399 15.4634 43.7916 15.4634C43.7441 15.4634 43.624 15.377 43.5264 15.2734C43.4288 15.168 43.3166 15.0825 43.276 15.0825C43.1836 15.0825 42.7647 14.6637 42.7647 14.5713C42.7647 14.5324 42.6507 14.3908 42.5108 14.2569C42.3709 14.1231 42.2569 13.9745 42.2569 13.927C42.2569 13.8795 42.1999 13.7992 42.13 13.7491C42.06 13.699 42.003 13.6127 42.003 13.5591C42.003 13.5039 41.9461 13.4184 41.8761 13.3683C41.8061 13.3182 41.7492 13.2258 41.7492 13.1636C41.7492 13.1014 41.7207 13.0513 41.6852 13.0513C41.6507 13.0513 41.6222 12.965 41.6222 12.8605C41.6222 12.7551 41.5937 12.6705 41.5583 12.6705C41.5238 12.6705 41.4953 12.5841 41.4953 12.4796C41.4953 12.3743 41.4668 12.2888 41.4314 12.2888C41.3968 12.2888 41.3683 12.2024 41.3683 12.0988C41.3683 11.9934 41.3398 11.9079 41.3044 11.9079C41.2699 11.9079 41.2414 11.7654 41.2414 11.5901C41.2414 11.4157 41.2129 11.2732 41.1775 11.2732C41.1377 11.2732 41.1135 10.8708 41.1135 10.1937C41.1135 9.51664 41.1377 9.11421 41.1775 9.11421C41.212 9.11421 41.2414 8.97171 41.2414 8.79727C41.2414 8.62282 41.2699 8.47946 41.3044 8.47946C41.3389 8.47946 41.3683 8.3931 41.3683 8.28947C41.3683 8.18411 41.3968 8.09862 41.4314 8.09862C41.4659 8.09862 41.4953 8.01226 41.4953 7.90863C41.4953 7.80327 41.5238 7.71777 41.5583 7.71777C41.5928 7.71777 41.6222 7.66077 41.6222 7.59082C41.6222 7.52087 41.6507 7.46388 41.6852 7.46388C41.7198 7.46388 41.7492 7.40688 41.7492 7.33693C41.7492 7.26698 41.7776 7.20998 41.8122 7.20998C41.8467 7.20998 41.8761 7.15816 41.8761 7.09685C41.8761 7.03467 41.9331 6.94313 42.003 6.89218C42.0721 6.84209 42.13 6.75659 42.13 6.70218C42.13 6.64778 42.187 6.56142 42.2569 6.51219C42.326 6.46038 42.3839 6.38265 42.3839 6.33775C42.3839 6.23066 43.4366 5.17794 43.5437 5.17794C43.5886 5.17794 43.6663 5.12094 43.7164 5.05099C43.7674 4.9819 43.8529 4.92404 43.9073 4.92404C43.9617 4.92404 44.0472 4.86704 44.0973 4.79709C44.1482 4.72801 44.2406 4.67015 44.3019 4.67015C44.3641 4.67015 44.4151 4.64165 44.4151 4.6071C44.4151 4.57256 44.4729 4.5432 44.542 4.5432C44.612 4.5432 44.669 4.5147 44.669 4.48015C44.669 4.44561 44.726 4.41625 44.7959 4.41625C44.8659 4.41625 44.9229 4.38775 44.9229 4.35321C44.9229 4.31866 44.9807 4.2893 45.0507 4.2893C45.1198 4.2893 45.1768 4.2608 45.1768 4.22626C45.1768 4.19171 45.2631 4.16235 45.3676 4.16235C45.4721 4.16235 45.5576 4.13385 45.5576 4.09931C45.5576 4.06476 45.701 4.0354 45.8754 4.0354C46.0499 4.0354 46.1932 4.0069 46.1932 3.97236C46.1932 3.93609 46.3832 3.90845 46.6371 3.90845C46.891 3.90845 47.0819 3.88168 47.0819 3.84541C47.0819 3.80741 47.315 3.78151 47.6536 3.78151C47.9921 3.78151 48.2244 3.80741 48.2244 3.84541C48.2244 3.88168 48.4144 3.90845 48.6691 3.90845C48.923 3.90845 49.113 3.93609 49.113 3.97236C49.113 4.0069 49.2279 4.0354 49.3669 4.0354C49.5068 4.0354 49.6217 4.0639 49.6217 4.09931C49.6217 4.13385 49.7072 4.16235 49.8117 4.16235C49.9162 4.16235 50.0017 4.19085 50.0017 4.22626C50.0017 4.2608 50.088 4.2893 50.1925 4.2893C50.297 4.2893 50.3825 4.3178 50.3825 4.35321C50.3825 4.38775 50.4404 4.41625 50.5103 4.41625C50.5794 4.41625 50.6373 4.44475 50.6373 4.48015C50.6373 4.5147 50.6943 4.5432 50.7642 4.5432C50.8333 4.5432 50.8912 4.57169 50.8912 4.6071C50.8912 4.64165 50.9421 4.67015 51.0034 4.67015C51.0665 4.67015 51.1589 4.72714 51.2081 4.79709C51.2591 4.86704 51.3446 4.92404 51.399 4.92404C51.4534 4.92404 51.5389 4.98104 51.589 5.05099C51.6399 5.12094 51.7194 5.17794 51.7669 5.17794C51.8144 5.17794 51.9629 5.2928 52.0976 5.43184C52.2315 5.57174 52.3748 5.68573 52.4163 5.68573C52.4569 5.68573 52.5709 5.77209 52.6685 5.87659C52.7669 5.98108 52.8783 6.06658 52.918 6.06658C52.9569 6.06658 53.4163 5.63824 53.9388 5.1149C54.4604 4.59069 54.919 4.16235 54.9578 4.16235C55.0597 4.16235 55.2083 3.99568 55.2083 3.88168C55.2083 3.82641 55.1798 3.78151 55.1444 3.78151C55.1098 3.78151 55.0813 3.73833 55.0813 3.68478C55.0813 3.57511 54.4224 2.89287 54.3153 2.89287C54.2773 2.89287 54.1357 2.77801 54.0018 2.63897C53.868 2.49907 53.7246 2.38507 53.6832 2.38507C53.6417 2.38507 53.5277 2.29871 53.431 2.19508C53.3326 2.08972 53.2065 2.00423 53.1512 2.00423C53.0951 2.00423 53.0493 1.97486 53.0493 1.94032C53.0493 1.90578 52.9983 1.87728 52.937 1.87728C52.8748 1.87728 52.7824 1.81942 52.7324 1.75033C52.6823 1.68038 52.5899 1.62252 52.5277 1.62252C52.4655 1.62252 52.4154 1.59402 52.4154 1.55947C52.4154 1.52493 52.3576 1.49557 52.2876 1.49557C52.2185 1.49557 52.1607 1.46707 52.1607 1.43253C52.1607 1.39798 52.1037 1.36862 52.0337 1.36862C51.9646 1.36862 51.9068 1.34012 51.9068 1.30558C51.9068 1.27103 51.8204 1.24167 51.7168 1.24167C51.6114 1.24167 51.5259 1.21317 51.5259 1.17863C51.5259 1.14409 51.4396 1.11472 51.3359 1.11472C51.2306 1.11472 51.1451 1.08622 51.1451 1.05168C51.1451 1.01714 51.0587 0.987774 50.9551 0.987774C50.8497 0.987774 50.7642 0.959276 50.7642 0.924732C50.7642 0.890188 50.6494 0.860826 50.5103 0.860826C50.3704 0.860826 50.2564 0.832327 50.2564 0.797783C50.2564 0.76324 50.1416 0.733877 50.0025 0.733877C49.8626 0.733877 49.7486 0.705379 49.7486 0.670835C49.7486 0.6337 49.5371 0.606929 49.2408 0.606929C48.9438 0.606929 48.7322 0.581021 48.7322 0.543887C48.7322 0.503298 48.309 0.47998 47.5896 0.47998C46.8703 0.47998 46.4471 0.503298 46.4471 0.543887ZM66.5084 0.543887C66.5084 0.581021 66.2968 0.606929 66.0006 0.606929C65.7044 0.606929 65.4928 0.632837 65.4928 0.670835C65.4928 0.705379 65.3503 0.733877 65.1759 0.733877C65.0014 0.733877 64.8581 0.762376 64.8581 0.797783C64.8581 0.832327 64.7717 0.860826 64.6681 0.860826C64.5627 0.860826 64.4781 0.889325 64.4781 0.924732C64.4781 0.959276 64.3633 0.987774 64.2234 0.987774C64.0835 0.987774 63.9695 1.01627 63.9695 1.05168C63.9695 1.08622 63.8831 1.11472 63.7795 1.11472C63.6741 1.11472 63.5886 1.14322 63.5886 1.17863C63.5886 1.21317 63.5316 1.24167 63.4617 1.24167C63.3917 1.24167 63.3347 1.27017 63.3347 1.30558C63.3347 1.34012 63.2484 1.36862 63.1447 1.36862C63.0394 1.36862 62.9539 1.39798 62.9539 1.43253C62.9539 1.46707 62.8969 1.49557 62.8269 1.49557C62.757 1.49557 62.7 1.52493 62.7 1.55947C62.7 1.59402 62.6421 1.62252 62.573 1.62252C62.5031 1.62252 62.4461 1.65188 62.4461 1.68642C62.4461 1.72097 62.3943 1.75033 62.3329 1.75033C62.2708 1.75033 62.1784 1.80733 62.1283 1.87728C62.0782 1.94637 61.9858 2.00423 61.9236 2.00423C61.8614 2.00423 61.8113 2.03272 61.8113 2.06727C61.8113 2.10181 61.7656 2.13117 61.7094 2.13117C61.6533 2.13117 61.5281 2.21667 61.4296 2.32117C61.332 2.42566 61.218 2.51116 61.1757 2.51116C61.1343 2.51116 61.0203 2.59752 60.9218 2.70201C60.8242 2.80737 60.712 2.892 60.6731 2.892C60.5807 2.892 59.6523 3.82123 59.6523 3.91364C59.6523 3.9525 59.566 4.06476 59.4624 4.16235C59.357 4.25994 59.2715 4.3748 59.2715 4.41625C59.2715 4.45856 59.1851 4.57169 59.0815 4.67015C58.9761 4.76859 58.8906 4.88777 58.8906 4.93613C58.8906 4.98363 58.8336 5.06481 58.7637 5.1149C58.6937 5.16498 58.6368 5.25739 58.6368 5.31957C58.6368 5.38175 58.6083 5.43184 58.5728 5.43184C58.5383 5.43184 58.5098 5.4897 58.5098 5.55878C58.5098 5.62874 58.4813 5.68573 58.4459 5.68573C58.4114 5.68573 58.3829 5.77209 58.3829 5.87659C58.3829 5.98108 58.3544 6.06658 58.3189 6.06658C58.2844 6.06658 58.2559 6.12444 58.2559 6.19439C58.2559 6.26348 58.2265 6.32134 58.192 6.32134C58.1575 6.32134 58.129 6.40683 58.129 6.51133C58.129 6.61582 58.0996 6.70132 58.0651 6.70132C58.0305 6.70132 58.002 6.75918 58.002 6.82913C58.002 6.89822 57.9735 6.95608 57.9381 6.95608C57.9036 6.95608 57.8751 7.07008 57.8751 7.20998C57.8751 7.34988 57.8457 7.46388 57.8112 7.46388C57.7766 7.46388 57.7473 7.55023 57.7473 7.65387C57.7473 7.75922 57.7188 7.84472 57.6842 7.84472C57.6497 7.84472 57.6212 7.98721 57.6212 8.16252C57.6212 8.33697 57.5918 8.47946 57.5573 8.47946C57.5167 8.47946 57.4934 9.09262 57.4934 10.1937C57.4934 11.2939 57.5167 11.9079 57.5573 11.9079C57.5918 11.9079 57.6212 12.0504 57.6212 12.2249C57.6212 12.4002 57.6488 12.5427 57.6842 12.5427C57.7188 12.5427 57.7473 12.629 57.7473 12.7327C57.7473 12.838 57.7766 12.9235 57.8112 12.9235C57.8457 12.9235 57.8742 13.0384 57.8742 13.1774C57.8742 13.3173 57.9036 13.4313 57.9381 13.4313C57.9727 13.4313 58.002 13.5177 58.002 13.6213C58.002 13.7267 58.0305 13.8122 58.0651 13.8122C58.0996 13.8122 58.129 13.8985 58.129 14.0022C58.129 14.1075 58.1575 14.193 58.192 14.193C58.2265 14.193 58.2559 14.2509 58.2559 14.3208C58.2559 14.3899 58.2844 14.4469 58.3189 14.4469C58.3535 14.4469 58.3829 14.5048 58.3829 14.5747C58.3829 14.6438 58.4114 14.7017 58.4459 14.7017C58.4804 14.7017 58.5098 14.7587 58.5098 14.8286C58.5098 14.8977 58.5383 14.9556 58.5728 14.9556C58.6074 14.9556 58.6368 15.0065 58.6368 15.0678C58.6368 15.13 58.6937 15.2224 58.7637 15.2725C58.8328 15.3235 58.8906 15.415 58.8906 15.4772C58.8906 15.5394 58.9191 15.5894 58.9537 15.5894C58.9882 15.5894 59.0176 15.6361 59.0176 15.6913C59.0176 15.7475 59.1031 15.8727 59.2076 15.9712C59.3129 16.0687 59.3976 16.181 59.3976 16.219C59.3976 16.3114 60.8355 17.7484 60.9279 17.7484C60.9667 17.7484 61.0781 17.8348 61.1757 17.9384C61.2742 18.0438 61.3933 18.1293 61.4417 18.1293C61.4892 18.1293 61.5704 18.1871 61.6205 18.2562C61.6706 18.3262 61.763 18.3832 61.8251 18.3832C61.8873 18.3832 61.9374 18.4125 61.9374 18.4471C61.9374 18.4816 61.9892 18.5101 62.0505 18.5101C62.1127 18.5101 62.2051 18.568 62.2552 18.6371C62.3053 18.707 62.3977 18.7649 62.4599 18.7649C62.5221 18.7649 62.5722 18.7934 62.5722 18.8279C62.5722 18.8625 62.63 18.8918 62.7 18.8918C62.7691 18.8918 62.8269 18.9203 62.8269 18.9549C62.8269 18.9894 62.9124 19.0188 63.0169 19.0188C63.1214 19.0188 63.2069 19.0473 63.2069 19.0818C63.2069 19.1164 63.2648 19.1457 63.3347 19.1457C63.4038 19.1457 63.4617 19.1742 63.4617 19.2088C63.4617 19.2433 63.548 19.2727 63.6516 19.2727C63.757 19.2727 63.8416 19.3012 63.8416 19.3357C63.8416 19.3703 63.928 19.3996 64.0334 19.3996C64.137 19.3996 64.2234 19.4281 64.2234 19.4627C64.2234 19.4972 64.3373 19.5266 64.4772 19.5266C64.6171 19.5266 64.7311 19.5551 64.7311 19.5896C64.7311 19.6242 64.846 19.6535 64.985 19.6535C65.1249 19.6535 65.2389 19.682 65.2389 19.7166C65.2389 19.7511 65.3823 19.7805 65.5567 19.7805C65.7312 19.7805 65.8737 19.809 65.8737 19.8435C65.8737 19.885 66.4877 19.9074 67.5879 19.9074C68.689 19.9074 69.3022 19.885 69.3022 19.8435C69.3022 19.809 69.4455 19.7805 69.62 19.7805C69.7944 19.7805 69.9369 19.752 69.9369 19.7166C69.9369 19.682 70.0518 19.6535 70.1908 19.6535C70.3307 19.6535 70.4447 19.625 70.4447 19.5896C70.4447 19.5551 70.5595 19.5266 70.6995 19.5266C70.8385 19.5266 70.9533 19.4981 70.9533 19.4627C70.9533 19.4281 71.0388 19.3996 71.1433 19.3996C71.2487 19.3996 71.3333 19.3711 71.3333 19.3357C71.3333 19.3012 71.4197 19.2727 71.5242 19.2727C71.6295 19.2727 71.7142 19.2442 71.7142 19.2088C71.7142 19.1742 71.8005 19.1457 71.905 19.1457C72.0104 19.1457 72.095 19.1172 72.095 19.0818C72.095 19.0473 72.1529 19.0188 72.2228 19.0188C72.2919 19.0188 72.3498 18.9894 72.3498 18.9549C72.3498 18.9203 72.4068 18.8918 72.4767 18.8918C72.5458 18.8918 72.6037 18.8625 72.6037 18.8279C72.6037 18.7934 72.6546 18.7649 72.716 18.7649C72.779 18.7649 72.8714 18.707 72.9215 18.6371C72.9716 18.568 73.0631 18.511 73.1253 18.511C73.1875 18.511 73.2384 18.4816 73.2384 18.4471C73.2384 18.4125 73.2902 18.3832 73.3516 18.3832C73.4137 18.3832 73.5053 18.3262 73.5562 18.2562C73.6063 18.1871 73.6866 18.1293 73.735 18.1293C73.7833 18.1293 73.9025 18.0438 74.0001 17.9393C74.0986 17.8348 74.21 17.7493 74.2488 17.7493C74.3404 17.7493 75.6513 16.4392 75.6513 16.3477C75.6513 16.3097 75.7653 16.1689 75.9052 16.0342C76.0451 15.9003 76.1591 15.7458 76.1591 15.6905C76.1591 15.6352 76.1876 15.5903 76.2221 15.5903C76.2567 15.5903 76.286 15.5385 76.286 15.4772C76.286 15.415 76.343 15.3235 76.413 15.2725C76.4821 15.2224 76.5399 15.13 76.5399 15.0678C76.5399 15.0065 76.5684 14.9556 76.603 14.9556C76.6375 14.9556 76.6669 14.8986 76.6669 14.8286C76.6669 14.7587 76.6954 14.7017 76.7308 14.7017C76.7653 14.7017 76.7938 14.6438 76.7938 14.5747C76.7938 14.5048 76.8223 14.4469 76.8569 14.4469C76.8923 14.4469 76.9208 14.3614 76.9208 14.2569C76.9208 14.1524 76.9493 14.0669 76.9847 14.0669C77.0192 14.0669 77.0477 14.0091 77.0477 13.9391C77.0477 13.87 77.0762 13.8122 77.1116 13.8122C77.1462 13.8122 77.1747 13.7267 77.1747 13.6222C77.1747 13.5177 77.2032 13.4322 77.2386 13.4322C77.2731 13.4322 77.3016 13.3458 77.3016 13.2413C77.3016 13.136 77.3301 13.0513 77.3655 13.0513C77.4001 13.0513 77.4286 12.9365 77.4286 12.7966C77.4286 12.6567 77.4571 12.5427 77.4925 12.5427C77.527 12.5427 77.5555 12.4002 77.5555 12.2257C77.5555 12.0504 77.584 11.9079 77.6194 11.9079C77.66 11.9079 77.6825 11.3155 77.6825 10.2567C77.6825 9.19884 77.66 8.60728 77.6194 8.60728C77.584 8.60728 77.5555 8.43715 77.5555 8.22557C77.5555 8.01399 77.5279 7.84472 77.4925 7.84472C77.4579 7.84472 77.4286 7.73073 77.4286 7.59082C77.4286 7.45092 77.4001 7.33693 77.3655 7.33693C77.331 7.33693 77.3016 7.25057 77.3016 7.14694C77.3016 7.04158 77.2731 6.95608 77.2386 6.95608C77.204 6.95608 77.1747 6.89908 77.1747 6.82913C77.1747 6.75918 77.1462 6.70218 77.1116 6.70218C77.0771 6.70218 77.0477 6.61582 77.0477 6.51219C77.0477 6.40683 77.0192 6.32134 76.9847 6.32134C76.9502 6.32134 76.9208 6.26348 76.9208 6.19439C76.9208 6.12444 76.8923 6.06744 76.8569 6.06744C76.8223 6.06744 76.7938 6.00958 76.7938 5.94049C76.7938 5.87054 76.7653 5.81268 76.7308 5.81268C76.6963 5.81268 76.6669 5.75568 76.6669 5.68573C76.6669 5.61665 76.6384 5.55878 76.6039 5.55878C76.5684 5.55878 76.5399 5.50179 76.5399 5.43184C76.5399 5.36275 76.5114 5.30489 76.476 5.30489C76.4415 5.30489 76.413 5.24789 76.413 5.17794C76.413 5.10885 76.3845 5.05099 76.3491 5.05099C76.3146 5.05099 76.286 5.00522 76.286 4.94995C76.286 4.89382 76.1997 4.76859 76.0961 4.67015C75.9907 4.57256 75.9052 4.45943 75.9052 4.41884C75.9052 4.37825 75.7618 4.20553 75.5874 4.0354C75.413 3.86527 75.2705 3.69515 75.2705 3.65715C75.2705 3.56647 74.5951 2.89287 74.5036 2.89287C74.4639 2.89287 74.3525 2.80651 74.254 2.70287C74.1564 2.59752 74.0372 2.51202 73.9889 2.51202C73.9405 2.51202 73.8602 2.45502 73.8101 2.38507C73.76 2.31512 73.6737 2.25812 73.6201 2.25812C73.5649 2.25812 73.4794 2.20026 73.4293 2.13117C73.3783 2.06122 73.2928 2.00423 73.2393 2.00423C73.184 2.00423 73.0985 1.94637 73.0484 1.87728C72.9975 1.80733 72.9059 1.75033 72.8438 1.75033C72.7816 1.75033 72.7306 1.72097 72.7306 1.68642C72.7306 1.65188 72.6736 1.62252 72.6037 1.62252C72.5346 1.62252 72.4767 1.59402 72.4767 1.55947C72.4767 1.52493 72.4197 1.49557 72.3498 1.49557C72.2807 1.49557 72.2228 1.46707 72.2228 1.43253C72.2228 1.39798 72.1365 1.36862 72.0328 1.36862C71.9275 1.36862 71.842 1.34012 71.842 1.30558C71.842 1.27103 71.785 1.24167 71.715 1.24167C71.6451 1.24167 71.5881 1.21317 71.5881 1.17863C71.5881 1.14409 71.5017 1.11472 71.3981 1.11472C71.2927 1.11472 71.2072 1.08622 71.2072 1.05168C71.2072 1.01714 71.0924 0.987774 70.9533 0.987774C70.8134 0.987774 70.6995 0.959276 70.6995 0.924732C70.6995 0.890188 70.6131 0.860826 70.5086 0.860826C70.4041 0.860826 70.3186 0.832327 70.3186 0.797783C70.3186 0.76324 70.1752 0.733877 70.0008 0.733877C69.8264 0.733877 69.683 0.705379 69.683 0.670835C69.683 0.6337 69.4714 0.606929 69.1752 0.606929C68.879 0.606929 68.6674 0.581021 68.6674 0.543887C68.6674 0.504161 68.265 0.47998 67.5879 0.47998C66.9109 0.47998 66.5084 0.504161 66.5084 0.543887ZM86.4436 0.543887C86.4436 0.580158 86.2537 0.606929 85.9998 0.606929C85.7459 0.606929 85.555 0.634564 85.555 0.670835C85.555 0.705379 85.4125 0.733877 85.2381 0.733877C85.0628 0.733877 84.9203 0.762376 84.9203 0.797783C84.9203 0.832327 84.8339 0.860826 84.7303 0.860826C84.6249 0.860826 84.5394 0.889325 84.5394 0.924732C84.5394 0.959276 84.4531 0.987774 84.3494 0.987774C84.2441 0.987774 84.1586 1.01627 84.1586 1.05168C84.1586 1.08622 84.1016 1.11472 84.0316 1.11472C83.9617 1.11472 83.9047 1.14322 83.9047 1.17863C83.9047 1.21317 83.8183 1.24167 83.7147 1.24167C83.6093 1.24167 83.5238 1.27017 83.5238 1.30558C83.5238 1.34012 83.472 1.36862 83.4107 1.36862C83.3485 1.36862 83.2561 1.42648 83.206 1.49557C83.1559 1.56552 83.0704 1.62252 83.016 1.62252C82.9616 1.62252 82.8753 1.68038 82.8252 1.75033C82.7751 1.81942 82.6965 1.87728 82.6516 1.87728C82.6058 1.87728 82.3554 2.09059 82.0937 2.35226C81.8329 2.61306 81.6188 2.86437 81.6188 2.90927C81.6188 2.95504 81.5617 3.03277 81.4918 3.08286C81.4227 3.13381 81.3649 3.2193 81.3649 3.27285C81.3649 3.32812 81.3079 3.41361 81.2379 3.4637C81.1688 3.51465 81.111 3.6062 81.111 3.66837C81.111 3.73055 81.0825 3.78151 81.0479 3.78151C81.0134 3.78151 80.984 3.86786 80.984 3.9715C80.984 4.07685 80.9555 4.16235 80.9201 4.16235C80.8856 4.16235 80.8571 4.24871 80.8571 4.35234C80.8571 4.4577 80.8286 4.5432 80.794 4.5432C80.7586 4.5432 80.7301 4.65805 80.7301 4.79709C80.7301 4.937 80.7016 5.05099 80.6662 5.05099C80.6273 5.05099 80.6032 5.43184 80.6032 6.06744C80.6032 6.70218 80.6273 7.08303 80.6662 7.08303C80.7008 7.08303 80.7301 7.19702 80.7301 7.33693C80.7301 7.47683 80.7586 7.59082 80.7932 7.59082C80.8277 7.59082 80.8571 7.67718 80.8571 7.78081C80.8571 7.88617 80.8856 7.97167 80.9201 7.97167C80.9546 7.97167 80.984 8.02262 80.984 8.08394C80.984 8.14698 81.041 8.23938 81.111 8.28947C81.18 8.33956 81.2379 8.41988 81.2379 8.46824C81.2379 8.5166 81.3243 8.63577 81.4279 8.73336C81.5332 8.83181 81.6188 8.94321 81.6188 8.98294C81.6188 9.08225 82.1689 9.622 82.2699 9.622C82.3157 9.622 82.3943 9.67986 82.4443 9.74895C82.4944 9.8189 82.5799 9.8759 82.6343 9.8759C82.6887 9.8759 82.7751 9.93376 82.8252 10.0028C82.8753 10.0728 82.9677 10.1298 83.0299 10.1298C83.092 10.1298 83.1421 10.1592 83.1421 10.1937C83.1421 10.2282 83.2 10.2576 83.2699 10.2576C83.339 10.2576 83.3969 10.2861 83.3969 10.3206C83.3969 10.3552 83.4539 10.3846 83.5238 10.3846C83.5929 10.3846 83.6508 10.4131 83.6508 10.4476C83.6508 10.4821 83.7078 10.5115 83.7777 10.5115C83.8468 10.5115 83.9047 10.54 83.9047 10.5745C83.9047 10.6091 83.9617 10.6385 84.0316 10.6385C84.1007 10.6385 84.1586 10.6669 84.1586 10.7015C84.1586 10.736 84.2441 10.7654 84.3486 10.7654C84.4539 10.7654 84.5386 10.7939 84.5386 10.8284C84.5386 10.863 84.6249 10.8923 84.7294 10.8923C84.8348 10.8923 84.9194 10.9208 84.9194 10.9554C84.9194 10.9899 85.0058 11.0193 85.1103 11.0193C85.2156 11.0193 85.3011 11.0478 85.3011 11.0823C85.3011 11.1169 85.3875 11.1462 85.4911 11.1462C85.5965 11.1462 85.682 11.1747 85.682 11.2093C85.682 11.2438 85.7683 11.2732 85.872 11.2732C85.9773 11.2732 86.0628 11.3017 86.0628 11.3362C86.0628 11.3708 86.1483 11.4001 86.2537 11.4001C86.3582 11.4001 86.4436 11.4286 86.4436 11.4632C86.4436 11.4977 86.53 11.5271 86.6345 11.5271C86.739 11.5271 86.8245 11.5556 86.8245 11.5901C86.8245 11.6247 86.9109 11.654 87.0154 11.654C87.1199 11.654 87.2053 11.6825 87.2053 11.7171C87.2053 11.7516 87.2917 11.781 87.3962 11.781C87.5007 11.781 87.5871 11.8095 87.5871 11.844C87.5871 11.8786 87.6725 11.9079 87.777 11.9079C87.8815 11.9079 87.9679 11.9364 87.9679 11.971C87.9679 12.0055 88.0534 12.0349 88.1579 12.0349C88.2633 12.0349 88.3487 12.0634 88.3487 12.0979C88.3487 12.1325 88.4342 12.1618 88.5387 12.1618C88.6441 12.1618 88.7296 12.1903 88.7296 12.2249C88.7296 12.2594 88.7866 12.2888 88.8565 12.2888C88.9265 12.2888 88.9835 12.3173 88.9835 12.3527C88.9835 12.3872 89.069 12.4157 89.1735 12.4157C89.2788 12.4157 89.3643 12.4442 89.3643 12.4796C89.3643 12.5142 89.4153 12.5427 89.4775 12.5427C89.5396 12.5427 89.6312 12.5997 89.6821 12.6696C89.7322 12.7396 89.8108 12.7966 89.8557 12.7966C89.9714 12.7966 90.6338 13.471 90.6338 13.5894C90.6338 13.642 90.6623 13.6852 90.6977 13.6852C90.7323 13.6852 90.7608 13.7716 90.7608 13.8752C90.7608 13.9806 90.7893 14.0661 90.8247 14.0661C90.8609 14.0661 90.8877 14.2569 90.8877 14.5108C90.8877 14.7647 90.8609 14.9556 90.8247 14.9556C90.7893 14.9556 90.7608 15.0411 90.7608 15.1456C90.7608 15.2501 90.7323 15.3355 90.6977 15.3355C90.6623 15.3355 90.6338 15.3874 90.6338 15.4487C90.6338 15.5117 90.5768 15.6033 90.5069 15.6533C90.4369 15.7043 90.3799 15.7838 90.3799 15.8313C90.3799 15.9418 90.2236 16.0981 90.1131 16.0981C90.0656 16.0981 89.9861 16.1551 89.936 16.225C89.8851 16.2941 89.7935 16.352 89.7314 16.352C89.6692 16.352 89.6182 16.3805 89.6182 16.415C89.6182 16.4496 89.5327 16.4789 89.4282 16.4789C89.3229 16.4789 89.2374 16.5074 89.2374 16.542C89.2374 16.5774 89.1234 16.6059 88.9835 16.6059C88.8436 16.6059 88.7296 16.6344 88.7296 16.6698C88.7296 16.7052 88.5387 16.7328 88.2848 16.7328C88.0309 16.7328 87.841 16.7605 87.841 16.7967C87.841 16.833 87.6501 16.8598 87.3962 16.8598C87.1423 16.8598 86.9515 16.833 86.9515 16.7967C86.9515 16.7588 86.7191 16.7328 86.3806 16.7328C86.0421 16.7328 85.8089 16.7069 85.8089 16.6698C85.8089 16.6353 85.6664 16.6059 85.492 16.6059C85.3167 16.6059 85.1742 16.5774 85.1742 16.5429C85.1742 16.5083 85.0602 16.4789 84.9203 16.4789C84.7804 16.4789 84.6664 16.4504 84.6664 16.415C84.6664 16.3805 84.5524 16.352 84.4125 16.352C84.2726 16.352 84.1586 16.3235 84.1586 16.289C84.1586 16.2535 84.0722 16.225 83.9686 16.225C83.8632 16.225 83.7777 16.1966 83.7777 16.1611C83.7777 16.1266 83.7199 16.0981 83.6508 16.0981C83.5808 16.0981 83.5238 16.0696 83.5238 16.0342C83.5238 15.9997 83.466 15.9712 83.3969 15.9712C83.3269 15.9712 83.2699 15.9427 83.2699 15.9072C83.2699 15.8727 83.2121 15.8442 83.143 15.8442C83.073 15.8442 83.0152 15.8157 83.0152 15.7803C83.0152 15.7458 82.9582 15.7173 82.8882 15.7173C82.8191 15.7173 82.7613 15.6888 82.7613 15.6533C82.7613 15.6188 82.7043 15.5903 82.6343 15.5903C82.5653 15.5903 82.5074 15.5618 82.5074 15.5264C82.5074 15.4919 82.4504 15.4634 82.3804 15.4634C82.3113 15.4634 82.2535 15.4349 82.2535 15.3995C82.2535 15.3649 82.2025 15.3364 82.1412 15.3364C82.079 15.3364 81.9866 15.2794 81.9365 15.2095C81.8856 15.1395 81.7941 15.0825 81.7319 15.0825C81.6697 15.0825 81.6196 15.054 81.6196 15.0186C81.6196 14.9841 81.5617 14.9556 81.4918 14.9556C81.4072 14.9556 81.3649 14.9979 81.3649 15.0825C81.3649 15.1516 81.3364 15.2095 81.3018 15.2095C81.2673 15.2095 81.2379 15.2665 81.2379 15.3364C81.2379 15.4055 81.2094 15.4634 81.1749 15.4634C81.1403 15.4634 81.111 15.5489 81.111 15.6533C81.111 15.7587 81.0825 15.8433 81.0479 15.8433C81.0134 15.8433 80.984 15.9012 80.984 15.9712C80.984 16.0402 80.9555 16.0981 80.9201 16.0981C80.8856 16.0981 80.8571 16.1845 80.8571 16.2881C80.8571 16.3935 80.8286 16.4789 80.794 16.4789C80.7586 16.4789 80.7301 16.5359 80.7301 16.6059C80.7301 16.675 80.7016 16.7328 80.6662 16.7328C80.6317 16.7328 80.6032 16.8192 80.6032 16.9228C80.6032 17.0282 80.5747 17.1137 80.5393 17.1137C80.5047 17.1137 80.4762 17.2 80.4762 17.3037C80.4762 17.409 80.4477 17.4945 80.4123 17.4945C80.3778 17.4945 80.3493 17.5809 80.3493 17.6845C80.3493 17.8175 80.3804 17.8754 80.4503 17.8754C80.5064 17.8754 80.6317 17.9617 80.7301 18.0654C80.8277 18.1707 80.9538 18.2562 81.009 18.2562C81.0652 18.2562 81.111 18.2856 81.111 18.3201C81.111 18.3547 81.1619 18.3832 81.2232 18.3832C81.2863 18.3832 81.3787 18.441 81.4288 18.511C81.4788 18.5801 81.5704 18.6371 81.6326 18.6371C81.6947 18.6371 81.7457 18.6664 81.7457 18.701C81.7457 18.7355 81.8027 18.7649 81.8726 18.7649C81.9426 18.7649 81.9996 18.7934 81.9996 18.8279C81.9996 18.8625 82.0566 18.8918 82.1265 18.8918C82.1965 18.8918 82.2535 18.9203 82.2535 18.9549C82.2535 18.9894 82.3113 19.0188 82.3804 19.0188C82.4504 19.0188 82.5074 19.0473 82.5074 19.0818C82.5074 19.1164 82.5938 19.1457 82.6974 19.1457C82.8027 19.1457 82.8891 19.1742 82.8891 19.2088C82.8891 19.2433 82.9746 19.2727 83.0791 19.2727C83.1836 19.2727 83.2691 19.3012 83.2691 19.3357C83.2691 19.3703 83.3554 19.3996 83.4599 19.3996C83.5644 19.3996 83.6499 19.4281 83.6499 19.4627C83.6499 19.4972 83.7648 19.5266 83.9047 19.5266C84.0437 19.5266 84.1586 19.5551 84.1586 19.5896C84.1586 19.6242 84.3011 19.6535 84.4755 19.6535C84.6508 19.6535 84.7933 19.682 84.7933 19.7166C84.7933 19.752 84.9626 19.7805 85.1742 19.7805C85.3857 19.7805 85.555 19.8081 85.555 19.8435C85.555 19.8841 86.1474 19.9074 87.2053 19.9074C88.2641 19.9074 88.8565 19.8841 88.8565 19.8435C88.8565 19.809 89.0258 19.7805 89.2374 19.7805C89.449 19.7805 89.6182 19.752 89.6182 19.7166C89.6182 19.682 89.7322 19.6535 89.8721 19.6535C90.012 19.6535 90.126 19.625 90.126 19.5896C90.126 19.5551 90.2115 19.5266 90.3169 19.5266C90.4214 19.5266 90.5069 19.4981 90.5069 19.4627C90.5069 19.4281 90.5932 19.3996 90.6977 19.3996C90.8022 19.3996 90.8877 19.3711 90.8877 19.3357C90.8877 19.3012 90.9456 19.2727 91.0147 19.2727C91.0846 19.2727 91.1416 19.2442 91.1416 19.2088C91.1416 19.1742 91.228 19.1457 91.3325 19.1457C91.437 19.1457 91.5233 19.1172 91.5233 19.0818C91.5233 19.0473 91.5734 19.0188 91.6356 19.0188C91.6978 19.0188 91.7902 18.9609 91.8403 18.8918C91.8904 18.8219 91.9767 18.7649 92.0311 18.7649C92.0855 18.7649 92.171 18.707 92.2211 18.6371C92.2712 18.568 92.3524 18.511 92.3999 18.511C92.4482 18.511 92.5683 18.4246 92.6659 18.3201C92.7634 18.2156 92.8757 18.1301 92.9154 18.1301C93.0087 18.1301 93.4275 17.7113 93.4275 17.618C93.4275 17.5783 93.513 17.4652 93.6184 17.3676C93.7229 17.27 93.8084 17.1508 93.8084 17.1025C93.8084 17.0541 93.8654 16.9729 93.9353 16.9237C94.0053 16.8727 94.0623 16.7812 94.0623 16.719C94.0623 16.6568 94.0908 16.6068 94.1262 16.6068C94.1607 16.6068 94.1892 16.5489 94.1892 16.4789C94.1892 16.4099 94.2177 16.352 94.2531 16.352C94.2877 16.352 94.3162 16.295 94.3162 16.225C94.3162 16.156 94.3447 16.0981 94.3801 16.0981C94.4146 16.0981 94.4431 16.0117 94.4431 15.9081C94.4431 15.8028 94.4716 15.7173 94.507 15.7173C94.5424 15.7173 94.5701 15.548 94.5701 15.3364C94.5701 15.1248 94.5986 14.9556 94.634 14.9556C94.672 14.9556 94.697 14.7017 94.697 14.3208C94.697 13.9391 94.672 13.6852 94.634 13.6852C94.5986 13.6852 94.5701 13.516 94.5701 13.3052C94.5701 13.0928 94.5424 12.9235 94.507 12.9235C94.4716 12.9235 94.4431 12.8095 94.4431 12.6696C94.4431 12.5297 94.4146 12.4157 94.3801 12.4157C94.3447 12.4157 94.3162 12.3587 94.3162 12.2888C94.3162 12.2197 94.2877 12.1618 94.2531 12.1618C94.2177 12.1618 94.1892 12.1048 94.1892 12.0349C94.1892 11.9658 94.1607 11.9079 94.1262 11.9079C94.0908 11.9079 94.0623 11.8509 94.0623 11.781C94.0623 11.711 94.0338 11.654 93.9992 11.654C93.9638 11.654 93.9353 11.6091 93.9353 11.5547C93.9353 11.5003 93.7928 11.3164 93.6184 11.1462C93.4431 10.9761 93.3006 10.8043 93.3006 10.7645C93.3006 10.6704 93.14 10.5115 93.045 10.5115C93.0044 10.5115 92.8904 10.4251 92.7928 10.3215C92.6952 10.2162 92.5752 10.1298 92.5277 10.1298C92.4793 10.1298 92.399 10.0728 92.3481 10.0037C92.298 9.93376 92.2056 9.8759 92.1434 9.8759C92.0821 9.8759 92.0311 9.8474 92.0311 9.81285C92.0311 9.77831 91.9733 9.74895 91.9042 9.74895C91.8342 9.74895 91.7772 9.72045 91.7772 9.68591C91.7772 9.65136 91.7194 9.622 91.6503 9.622C91.5803 9.622 91.5233 9.5935 91.5233 9.55896C91.5233 9.52441 91.4655 9.49505 91.3955 9.49505C91.3264 9.49505 91.2686 9.46655 91.2686 9.43201C91.2686 9.39746 91.2116 9.3681 91.1416 9.3681C91.0725 9.3681 91.0147 9.3396 91.0147 9.30506C91.0147 9.27052 90.9292 9.24115 90.8247 9.24115C90.7202 9.24115 90.6338 9.21266 90.6338 9.17811C90.6338 9.14357 90.5483 9.11421 90.4438 9.11421C90.3385 9.11421 90.253 9.08571 90.253 9.05116C90.253 9.01662 90.196 8.98726 90.126 8.98726C90.0561 8.98726 89.9991 8.95876 89.9991 8.92421C89.9991 8.88967 89.9136 8.86031 89.8091 8.86031C89.7037 8.86031 89.6182 8.83181 89.6182 8.79727C89.6182 8.76272 89.5327 8.73336 89.4282 8.73336C89.3229 8.73336 89.2374 8.70486 89.2374 8.67032C89.2374 8.63577 89.1519 8.60641 89.0465 8.60641C88.942 8.60641 88.8565 8.57791 88.8565 8.54337C88.8565 8.50883 88.7425 8.47946 88.6026 8.47946C88.4627 8.47946 88.3487 8.45096 88.3487 8.41642C88.3487 8.38188 88.2633 8.35251 88.1579 8.35251C88.0534 8.35251 87.9679 8.32402 87.9679 8.28947C87.9679 8.25493 87.853 8.22557 87.714 8.22557C87.5741 8.22557 87.4601 8.19707 87.4601 8.16252C87.4601 8.12798 87.3737 8.09862 87.2692 8.09862C87.1648 8.09862 87.0784 8.07012 87.0784 8.03557C87.0784 8.00103 86.9929 7.97167 86.8884 7.97167C86.7839 7.97167 86.6975 7.94317 86.6975 7.90776C86.6975 7.87322 86.6121 7.84472 86.5076 7.84472C86.4031 7.84472 86.3167 7.81622 86.3167 7.78081C86.3167 7.74627 86.2597 7.71777 86.1898 7.71777C86.1198 7.71777 86.0628 7.68927 86.0628 7.65387C86.0628 7.61932 86.0058 7.59082 85.9359 7.59082C85.8668 7.59082 85.8089 7.56233 85.8089 7.52692C85.8089 7.49237 85.7519 7.46388 85.682 7.46388C85.6129 7.46388 85.555 7.43538 85.555 7.39997C85.555 7.36543 85.5118 7.33693 85.4583 7.33693C85.3331 7.33693 84.5394 6.54242 84.5394 6.4172C84.5394 6.36452 84.5109 6.32134 84.4755 6.32134C84.4375 6.32134 84.4125 6.05017 84.4125 5.63651C84.4125 5.02508 84.4263 4.94218 84.5394 4.861C84.6085 4.81005 84.6664 4.73146 84.6664 4.68569C84.6664 4.56997 85.0852 4.16235 85.2035 4.16235C85.2571 4.16235 85.3011 4.13385 85.3011 4.09931C85.3011 4.06476 85.3581 4.0354 85.4281 4.0354C85.4972 4.0354 85.555 4.0069 85.555 3.97236C85.555 3.93782 85.6414 3.90845 85.745 3.90845C85.8504 3.90845 85.9359 3.87996 85.9359 3.84541C85.9359 3.81087 86.0792 3.78151 86.2537 3.78151C86.4281 3.78151 86.5706 3.75301 86.5706 3.7176C86.5706 3.67787 86.9938 3.65456 87.714 3.65456C88.4334 3.65456 88.8565 3.67787 88.8565 3.7176C88.8565 3.75301 89.0258 3.78151 89.2374 3.78151C89.449 3.78151 89.6182 3.81 89.6182 3.84541C89.6182 3.87996 89.7322 3.90845 89.8721 3.90845C90.012 3.90845 90.126 3.93695 90.126 3.97236C90.126 4.0069 90.2115 4.0354 90.3169 4.0354C90.4214 4.0354 90.5069 4.0639 90.5069 4.09931C90.5069 4.13385 90.5932 4.16235 90.6977 4.16235C90.8022 4.16235 90.8877 4.19085 90.8877 4.22626C90.8877 4.2608 90.9456 4.2893 91.0147 4.2893C91.0846 4.2893 91.1416 4.3178 91.1416 4.35321C91.1416 4.38775 91.1995 4.41625 91.2686 4.41625C91.3385 4.41625 91.3955 4.44475 91.3955 4.48015C91.3955 4.5147 91.4534 4.5432 91.5233 4.5432C91.5924 4.5432 91.6503 4.57169 91.6503 4.6071C91.6503 4.64165 91.7073 4.67015 91.7772 4.67015C91.8463 4.67015 91.9042 4.69864 91.9042 4.73405C91.9042 4.76859 91.9612 4.79709 92.0311 4.79709C92.1011 4.79709 92.1581 4.82559 92.1581 4.861C92.1581 4.89554 92.209 4.92404 92.2703 4.92404C92.3325 4.92404 92.4249 4.98104 92.475 5.05099C92.526 5.12094 92.6115 5.17794 92.6659 5.17794C92.7203 5.17794 92.8058 5.23494 92.8559 5.30489C92.9068 5.37484 92.9983 5.43184 93.0605 5.43184C93.1313 5.43184 93.1737 5.38434 93.1737 5.30489C93.1737 5.2358 93.2022 5.17794 93.2367 5.17794C93.2721 5.17794 93.3006 5.09244 93.3006 4.98795C93.3006 4.88259 93.3291 4.79796 93.3636 4.79796C93.399 4.79796 93.4275 4.7401 93.4275 4.67015C93.4275 4.60106 93.456 4.5432 93.4906 4.5432C93.526 4.5432 93.5545 4.4862 93.5545 4.41625C93.5545 4.34716 93.583 4.2893 93.6184 4.2893C93.6529 4.2893 93.6814 4.2323 93.6814 4.16235C93.6814 4.09326 93.7099 4.0354 93.7454 4.0354C93.7799 4.0354 93.8084 3.98445 93.8084 3.92313C93.8084 3.86009 93.8654 3.76769 93.9353 3.7176C94.0053 3.66751 94.0623 3.57597 94.0623 3.51379C94.0623 3.45161 94.0908 3.40066 94.1262 3.40066C94.1607 3.40066 94.1892 3.34366 94.1892 3.27371C94.1892 3.20376 94.2177 3.14676 94.2531 3.14676C94.2877 3.14676 94.3162 3.08977 94.3162 3.01981C94.3162 2.94986 94.3447 2.89287 94.3801 2.89287C94.4146 2.89287 94.4431 2.84796 94.4431 2.79269C94.4431 2.6761 94.2937 2.51202 94.1875 2.51202C94.1469 2.51202 94.0329 2.42566 93.9353 2.32203C93.8378 2.21667 93.7117 2.13117 93.6564 2.13117C93.6003 2.13117 93.5545 2.10268 93.5545 2.06727C93.5545 2.03272 93.5035 2.00423 93.4414 2.00423C93.3792 2.00423 93.2877 1.94637 93.2367 1.87728C93.1866 1.80733 93.0951 1.75033 93.0329 1.75033C92.9707 1.75033 92.9198 1.72097 92.9198 1.68642C92.9198 1.65188 92.8628 1.62252 92.7928 1.62252C92.7229 1.62252 92.6659 1.59402 92.6659 1.55947C92.6659 1.52493 92.5804 1.49557 92.475 1.49557C92.3705 1.49557 92.285 1.46707 92.285 1.43253C92.285 1.39798 92.228 1.36862 92.1581 1.36862C92.0881 1.36862 92.0311 1.34012 92.0311 1.30558C92.0311 1.27103 91.9448 1.24167 91.8403 1.24167C91.7358 1.24167 91.6503 1.21317 91.6503 1.17863C91.6503 1.14409 91.5639 1.11472 91.4594 1.11472C91.3549 1.11472 91.2686 1.08622 91.2686 1.05168C91.2686 1.01714 91.1546 0.987774 91.0147 0.987774C90.8756 0.987774 90.7608 0.959276 90.7608 0.924732C90.7608 0.890188 90.6468 0.860826 90.5069 0.860826C90.3678 0.860826 90.253 0.832327 90.253 0.797783C90.253 0.76324 90.139 0.733877 89.9991 0.733877C89.8592 0.733877 89.7452 0.705379 89.7452 0.670835C89.7452 0.6337 89.5336 0.606929 89.2374 0.606929C88.9412 0.606929 88.7296 0.581021 88.7296 0.543887C88.7296 0.503298 88.3064 0.47998 87.5871 0.47998C86.8668 0.47998 86.4436 0.503298 86.4436 0.543887ZM0.10141 10.1937V19.5266H13.4336V16.6068H3.52988V8.82317C3.52988 2.16399 3.51607 1.02836 3.43921 0.95064C3.36494 0.878098 3.04713 0.860826 1.72497 0.860826H0.10141V10.1937ZM23.9885 1.02145C23.9084 1.10793 23.8581 1.2178 23.8451 1.33494C23.8451 1.42389 23.8166 1.49557 23.7821 1.49557C23.7475 1.49557 23.7181 1.55343 23.7181 1.62252C23.7181 1.69247 23.6896 1.75033 23.6551 1.75033C23.6206 1.75033 23.5912 1.80733 23.5912 1.87728C23.5912 1.94637 23.5627 2.00423 23.5282 2.00423C23.4936 2.00423 23.4643 2.06122 23.4643 2.13117C23.4643 2.20026 23.4358 2.25812 23.4012 2.25812C23.3667 2.25812 23.3373 2.34362 23.3373 2.44811C23.3373 2.55261 23.3088 2.63811 23.2743 2.63811C23.2397 2.63811 23.2104 2.69597 23.2104 2.76592C23.2104 2.835 23.1819 2.89287 23.1473 2.89287C23.1128 2.89287 23.0834 2.94986 23.0834 3.01981C23.0834 3.0889 23.0549 3.14676 23.0204 3.14676C22.9858 3.14676 22.9565 3.20376 22.9565 3.27371C22.9565 3.3428 22.928 3.40066 22.8934 3.40066C22.8589 3.40066 22.8295 3.48702 22.8295 3.59065C22.8295 3.69601 22.801 3.78151 22.7665 3.78151C22.7319 3.78151 22.7026 3.8385 22.7026 3.90845C22.7026 3.97754 22.6741 4.0354 22.6395 4.0354C22.605 4.0354 22.5756 4.0924 22.5756 4.16235C22.5756 4.2323 22.5471 4.2893 22.5126 4.2893C22.478 4.2893 22.4487 4.3463 22.4487 4.41625C22.4487 4.4862 22.4202 4.5432 22.3856 4.5432C22.3511 4.5432 22.3217 4.62956 22.3217 4.73319C22.3217 4.83855 22.2932 4.92404 22.2587 4.92404C22.2241 4.92404 22.1948 4.98104 22.1948 5.05099C22.1948 5.12094 22.1663 5.17794 22.1317 5.17794C22.0972 5.17794 22.0678 5.23494 22.0678 5.30489C22.0678 5.37484 22.0393 5.43184 22.0048 5.43184C21.9702 5.43184 21.9409 5.4897 21.9409 5.55878C21.9409 5.62874 21.9124 5.68573 21.8778 5.68573C21.8424 5.68573 21.8139 5.77209 21.8139 5.87659C21.8139 5.98108 21.7854 6.06658 21.75 6.06658C21.7155 6.06658 21.687 6.12444 21.687 6.19439C21.687 6.26348 21.6585 6.32134 21.6231 6.32134C21.5885 6.32134 21.56 6.37834 21.56 6.44829C21.56 6.51737 21.5315 6.57524 21.4961 6.57524C21.4616 6.57524 21.4331 6.65469 21.4331 6.75141C21.4331 6.85504 21.3813 6.96558 21.3061 7.01912C21.2665 7.05162 21.2346 7.09247 21.2127 7.13876C21.1907 7.18504 21.1793 7.23561 21.1792 7.28684C21.1792 7.38442 21.1507 7.46388 21.1153 7.46388C21.0807 7.46388 21.0522 7.52087 21.0522 7.59082C21.0522 7.65991 21.0237 7.71777 20.9883 7.71777C20.9538 7.71777 20.9253 7.77477 20.9253 7.84472C20.9253 7.91381 20.8968 7.97167 20.8614 7.97167C20.8268 7.97167 20.7983 8.02867 20.7983 8.09862C20.7983 8.16771 20.7698 8.22557 20.7344 8.22557C20.6999 8.22557 20.6714 8.31192 20.6714 8.41556C20.6714 8.52092 20.6429 8.60641 20.6075 8.60641C20.5729 8.60641 20.5444 8.66341 20.5444 8.73336C20.5444 8.80331 20.5159 8.86031 20.4805 8.86031C20.446 8.86031 20.4175 8.94667 20.4175 9.0503C20.4175 9.15566 20.3881 9.24115 20.3536 9.24115C20.319 9.24115 20.2905 9.29902 20.2905 9.3681C20.2905 9.43805 20.2612 9.49505 20.2266 9.49505C20.1921 9.49505 20.1636 9.55205 20.1636 9.622C20.1636 9.69195 20.1342 9.74895 20.0997 9.74895C20.0651 9.74895 20.0366 9.80681 20.0366 9.8759C20.0366 9.94585 20.0073 10.0028 19.9727 10.0028C19.9382 10.0028 19.9097 10.0607 19.9097 10.1298C19.9097 10.1997 19.8803 10.2576 19.8458 10.2576C19.8112 10.2576 19.7819 10.3146 19.7819 10.3846C19.7819 10.4536 19.7534 10.5115 19.7188 10.5115C19.6843 10.5115 19.6549 10.5685 19.6549 10.6385C19.6549 10.7075 19.6264 10.7654 19.5919 10.7654C19.5573 10.7654 19.528 10.8509 19.528 10.9554C19.528 11.0599 19.4995 11.1454 19.4649 11.1454C19.4304 11.1454 19.401 11.2032 19.401 11.2732C19.401 11.3423 19.3725 11.4001 19.338 11.4001C19.3034 11.4001 19.2741 11.4865 19.2741 11.5901C19.2741 11.6955 19.2456 11.7801 19.211 11.7801C19.1765 11.7801 19.1471 11.838 19.1471 11.9079C19.1471 11.977 19.1186 12.0349 19.0841 12.0349C19.0496 12.0349 19.0202 12.0919 19.0202 12.1618C19.0202 12.2309 18.9917 12.2888 18.9571 12.2888C18.9226 12.2888 18.8932 12.3458 18.8932 12.4157C18.8932 12.4848 18.8647 12.5427 18.8302 12.5427C18.7957 12.5427 18.7663 12.629 18.7663 12.7327C18.7663 12.838 18.7378 12.9235 18.7032 12.9235C18.6687 12.9235 18.6393 12.9805 18.6393 13.0505C18.6393 13.1204 18.6108 13.1774 18.5763 13.1774C18.5418 13.1774 18.5124 13.2344 18.5124 13.3044C18.5124 13.3743 18.4839 13.4313 18.4494 13.4313C18.4148 13.4313 18.3854 13.4883 18.3854 13.5583C18.3854 13.6282 18.3569 13.6852 18.3224 13.6852C18.2879 13.6852 18.2585 13.7422 18.2585 13.8122C18.2585 13.8821 18.23 13.9391 18.1955 13.9391C18.1609 13.9391 18.1315 14.0255 18.1315 14.13C18.1315 14.2345 18.1031 14.32 18.0685 14.32C18.034 14.32 18.0046 14.3778 18.0046 14.4469C18.0046 14.5169 17.9761 14.5747 17.9416 14.5747C17.907 14.5747 17.8777 14.6317 17.8777 14.7017C17.8777 14.7708 17.8492 14.8286 17.8137 14.8286C17.7792 14.8286 17.7507 14.9141 17.7507 15.0186C17.7507 15.124 17.7222 15.2086 17.6877 15.2086C17.6523 15.2086 17.6238 15.2665 17.6238 15.3364C17.6238 15.4055 17.5953 15.4634 17.5599 15.4634C17.5253 15.4634 17.4968 15.5204 17.4968 15.5903C17.4968 15.6594 17.4683 15.7173 17.4329 15.7173C17.3984 15.7173 17.3699 15.7743 17.3699 15.8442C17.3699 15.9133 17.3414 15.9712 17.306 15.9712C17.2714 15.9712 17.2429 16.0575 17.2429 16.1611C17.2429 16.2665 17.2144 16.352 17.179 16.352C17.1445 16.352 17.116 16.409 17.116 16.4789C17.116 16.548 17.0875 16.6059 17.0521 16.6059C17.0175 16.6059 16.989 16.6629 16.989 16.7328C16.989 16.8019 16.9605 16.8598 16.9251 16.8598C16.8906 16.8598 16.8621 16.9168 16.8621 16.9867C16.8621 17.0567 16.8336 17.1137 16.7982 17.1137C16.7636 17.1137 16.7351 17.1707 16.7351 17.2406C16.7351 17.3106 16.7066 17.3676 16.6712 17.3676C16.6367 17.3676 16.6082 17.4539 16.6082 17.5576C16.6082 17.6629 16.5797 17.7484 16.5443 17.7484C16.5097 17.7484 16.4812 17.8063 16.4812 17.8754C16.4812 17.9453 16.4527 18.0023 16.4173 18.0023C16.3828 18.0023 16.3543 18.0593 16.3543 18.1293C16.3543 18.1992 16.3258 18.2562 16.2904 18.2562C16.2558 18.2562 16.2273 18.3426 16.2273 18.4471C16.2273 18.5516 16.198 18.6371 16.1634 18.6371C16.1289 18.6371 16.1004 18.6949 16.1004 18.7649C16.1004 18.834 16.071 18.8918 16.0365 18.8918C16.0019 18.8918 15.9734 18.9488 15.9734 19.0188C15.9734 19.0879 15.9441 19.1457 15.9095 19.1457C15.875 19.1457 15.8456 19.2027 15.8456 19.2727C15.8456 19.3418 15.8171 19.3996 15.7826 19.3996C15.7659 19.3998 15.75 19.4066 15.7382 19.4183C15.7265 19.4301 15.7198 19.446 15.7195 19.4627C15.7195 19.5033 16.3543 19.5266 17.4968 19.5266C19.2326 19.5266 19.2741 19.5231 19.2741 19.3996C19.2741 19.3297 19.3026 19.2727 19.338 19.2727C19.3725 19.2727 19.401 19.2148 19.401 19.1457C19.401 19.0758 19.4304 19.0188 19.4649 19.0188C19.4995 19.0188 19.528 18.9324 19.528 18.8288C19.528 18.7234 19.5573 18.6371 19.5919 18.6371C19.6264 18.6371 19.6549 18.5801 19.6549 18.511C19.6549 18.441 19.6843 18.3832 19.7188 18.3832C19.7534 18.3832 19.7819 18.2977 19.7819 18.1932C19.7819 18.0887 19.8112 18.0032 19.8458 18.0032C19.8803 18.0032 19.9088 17.9453 19.9088 17.8754C19.9088 17.8063 19.9382 17.7484 19.9727 17.7484C20.0073 17.7484 20.0358 17.6914 20.0358 17.6215C20.0358 17.5524 20.0651 17.4945 20.0997 17.4945C20.1342 17.4945 20.1636 17.4375 20.1636 17.3676C20.1636 17.2985 20.1921 17.2406 20.2266 17.2406C20.2612 17.2406 20.2905 17.1551 20.2905 17.0506C20.2905 16.9453 20.319 16.8607 20.3536 16.8607C20.3881 16.8607 20.4175 16.8028 20.4175 16.7328C20.4175 16.6638 20.446 16.6059 20.4805 16.6059C20.5151 16.6059 20.5444 16.5489 20.5444 16.4789C20.5444 16.4099 20.5729 16.352 20.6075 16.352C20.642 16.352 20.6714 16.2656 20.6714 16.162C20.6714 16.0566 20.6999 15.9712 20.7344 15.9712C20.769 15.9712 20.7983 15.9142 20.7983 15.8442C20.7983 15.7743 20.8268 15.7173 20.8614 15.7173C20.8959 15.7173 20.9253 15.6723 20.9253 15.6171C20.9253 15.3304 20.813 15.3364 26.0309 15.3364C30.7098 15.3364 30.9559 15.3416 30.9559 15.4487C30.9559 15.5117 31.0129 15.6033 31.0829 15.6533C31.1226 15.6858 31.1546 15.7266 31.1765 15.7729C31.1985 15.8192 31.2099 15.8698 31.2098 15.9211C31.2098 16.0187 31.2383 16.0981 31.2737 16.0981C31.3083 16.0981 31.3368 16.1551 31.3368 16.225C31.3368 16.2941 31.3653 16.352 31.4007 16.352C31.4352 16.352 31.4637 16.409 31.4637 16.4789C31.4637 16.548 31.4922 16.6059 31.5276 16.6059C31.5622 16.6059 31.5907 16.6629 31.5907 16.7328C31.5907 16.8019 31.6192 16.8598 31.6546 16.8598C31.6891 16.8598 31.7176 16.9168 31.7176 16.9867C31.7176 17.0567 31.7461 17.1137 31.7815 17.1137C31.8161 17.1137 31.8446 17.2 31.8446 17.3037C31.8446 17.409 31.8731 17.4945 31.9085 17.4945C31.943 17.4945 31.9715 17.5515 31.9715 17.6215C31.9715 17.6914 32 17.7484 32.0354 17.7484C32.07 17.7484 32.0985 17.8063 32.0985 17.8754C32.0985 17.9453 32.1278 18.0023 32.1624 18.0023C32.1969 18.0023 32.2254 18.0593 32.2254 18.1293C32.2254 18.1992 32.2539 18.2562 32.2893 18.2562C32.3239 18.2562 32.3532 18.3141 32.3532 18.3832C32.3532 18.4531 32.3809 18.511 32.4163 18.511C32.4508 18.511 32.4802 18.568 32.4802 18.6371C32.4802 18.707 32.5087 18.7649 32.5432 18.7649C32.5778 18.7649 32.6071 18.8219 32.6071 18.8918C32.6071 18.9609 32.6356 19.0188 32.6702 19.0188C32.7047 19.0188 32.7332 19.0758 32.7332 19.1457C32.7332 19.2148 32.7626 19.2727 32.7971 19.2727C32.8317 19.2727 32.861 19.3297 32.861 19.3996C32.861 19.524 32.9033 19.5266 34.8292 19.5266C36.0986 19.5266 36.7964 19.5041 36.7964 19.4627C36.7962 19.446 36.7895 19.4301 36.7777 19.4183C36.7659 19.4066 36.75 19.3998 36.7334 19.3996C36.6988 19.3996 36.6695 19.3426 36.6695 19.2727C36.6695 19.2027 36.641 19.1457 36.6064 19.1457C36.5719 19.1457 36.5425 19.0887 36.5425 19.0188C36.5425 18.9488 36.514 18.8918 36.4795 18.8918C36.445 18.8918 36.4156 18.834 36.4156 18.7649C36.4156 18.6949 36.3871 18.6371 36.3525 18.6371C36.318 18.6371 36.2886 18.5801 36.2886 18.511C36.2886 18.441 36.2601 18.3832 36.2256 18.3832C36.1911 18.3832 36.1617 18.2977 36.1617 18.1932C36.1617 18.0887 36.1332 18.0032 36.0987 18.0032C36.0641 18.0032 36.0347 17.9453 36.0347 17.8754C36.0347 17.8063 36.0062 17.7484 35.9717 17.7484C35.9372 17.7484 35.9078 17.6914 35.9078 17.6215C35.9078 17.5524 35.8793 17.4945 35.8447 17.4945C35.8102 17.4945 35.7808 17.4375 35.7808 17.3676C35.7808 17.2985 35.7523 17.2406 35.7178 17.2406C35.6833 17.2406 35.6539 17.1836 35.6539 17.1137C35.6539 17.0446 35.6254 16.9867 35.5909 16.9867C35.5563 16.9867 35.5269 16.9297 35.5269 16.8598C35.5269 16.7907 35.4985 16.7328 35.4639 16.7328C35.4294 16.7328 35.4 16.6758 35.4 16.6059C35.4 16.5368 35.3715 16.4789 35.337 16.4789C35.3024 16.4789 35.2731 16.4219 35.2731 16.352C35.2731 16.2829 35.2446 16.225 35.21 16.225C35.1755 16.225 35.1461 16.1681 35.1461 16.0981C35.1461 16.029 35.1176 15.9712 35.0831 15.9712C35.0485 15.9712 35.0192 15.9142 35.0192 15.8442C35.0192 15.7743 34.9907 15.7173 34.9561 15.7173C34.9216 15.7173 34.8922 15.6603 34.8922 15.5903C34.8922 15.5204 34.8637 15.4634 34.8283 15.4634C34.7938 15.4634 34.7653 15.4064 34.7653 15.3364C34.7653 15.2665 34.7368 15.2095 34.7022 15.2095C34.6677 15.2095 34.6383 15.1231 34.6383 15.0195C34.6383 14.9141 34.6098 14.8286 34.5744 14.8286C34.5399 14.8286 34.5114 14.7708 34.5114 14.7017C34.5114 14.6317 34.4829 14.5747 34.4475 14.5747C34.4129 14.5747 34.3844 14.5169 34.3844 14.4469C34.3844 14.3778 34.3559 14.3208 34.3205 14.3208C34.286 14.3208 34.2575 14.263 34.2575 14.193C34.2575 14.1239 34.229 14.0661 34.1936 14.0661C34.159 14.0661 34.1305 14.0091 34.1305 13.9391C34.1305 13.87 34.102 13.8122 34.0666 13.8122C34.0321 13.8122 34.0036 13.7552 34.0036 13.6852C34.0036 13.6161 33.9751 13.5583 33.9397 13.5583C33.9051 13.5583 33.8766 13.5013 33.8766 13.4313C33.8766 13.3622 33.8481 13.3044 33.8127 13.3044C33.7782 13.3044 33.7497 13.2474 33.7497 13.1774C33.7497 13.1083 33.7212 13.0505 33.6858 13.0505C33.6512 13.0505 33.6227 12.9935 33.6227 12.9235C33.6227 12.8544 33.5942 12.7966 33.5588 12.7966C33.5243 12.7966 33.4958 12.7396 33.4958 12.6696C33.4958 12.6005 33.4673 12.5427 33.4319 12.5427C33.3973 12.5427 33.3688 12.4857 33.3688 12.4157C33.3688 12.3466 33.3403 12.2888 33.3049 12.2888C33.2704 12.2888 33.2419 12.2318 33.2419 12.1618C33.2419 12.0927 33.2134 12.0349 33.178 12.0349C33.1434 12.0349 33.1149 11.9485 33.1149 11.8449C33.1149 11.7395 33.0856 11.654 33.051 11.654C33.0165 11.654 32.988 11.597 32.988 11.5271C32.988 11.4571 32.9595 11.4001 32.9241 11.4001C32.8895 11.4001 32.861 11.3431 32.861 11.2732C32.861 11.2032 32.8325 11.1462 32.7971 11.1462C32.7626 11.1462 32.7332 11.0892 32.7332 11.0193C32.7332 10.9493 32.7047 10.8923 32.6702 10.8923C32.6356 10.8923 32.6063 10.8354 32.6063 10.7654C32.6063 10.6954 32.5778 10.6385 32.5432 10.6385C32.5087 10.6385 32.4802 10.5815 32.4802 10.5115C32.4802 10.4416 32.4508 10.3846 32.4163 10.3846C32.3817 10.3846 32.3532 10.3267 32.3532 10.2576C32.3532 10.1877 32.3239 10.1298 32.2893 10.1298C32.2548 10.1298 32.2254 10.0728 32.2254 10.0037C32.2254 9.93376 32.1969 9.8759 32.1624 9.8759C32.1278 9.8759 32.0985 9.8189 32.0985 9.74895C32.0985 9.67986 32.07 9.622 32.0354 9.622C32.0009 9.622 31.9715 9.565 31.9715 9.49505C31.9715 9.42596 31.943 9.3681 31.9085 9.3681C31.8739 9.3681 31.8446 9.3111 31.8446 9.24115C31.8446 9.17207 31.8161 9.11421 31.7815 9.11421C31.747 9.11421 31.7176 9.05721 31.7176 8.98726C31.7176 8.91817 31.6891 8.86031 31.6546 8.86031C31.62 8.86031 31.5907 8.77481 31.5907 8.67032C31.5907 8.56496 31.5622 8.48033 31.5276 8.48033C31.4931 8.48033 31.4637 8.42247 31.4637 8.35251C31.4637 8.28343 31.4352 8.22557 31.4007 8.22557C31.3661 8.22557 31.3368 8.16857 31.3368 8.09862C31.3368 8.02953 31.3083 7.97167 31.2737 7.97167C31.2392 7.97167 31.2098 7.91467 31.2098 7.84472C31.2098 7.77563 31.1813 7.71777 31.1468 7.71777C31.1123 7.71777 31.0829 7.66077 31.0829 7.59082C31.0829 7.52087 31.0544 7.46388 31.0198 7.46388C30.9853 7.46388 30.9559 7.40688 30.9559 7.33693C30.9559 7.26698 30.9274 7.20998 30.8929 7.20998C30.8584 7.20998 30.829 7.15298 30.829 7.08303C30.829 7.01308 30.8005 6.95608 30.7659 6.95608C30.7314 6.95608 30.702 6.89908 30.702 6.82913C30.702 6.75918 30.6735 6.70218 30.6381 6.70218C30.6036 6.70218 30.5751 6.64519 30.5751 6.57524C30.5751 6.50528 30.5466 6.44829 30.5112 6.44829C30.4766 6.44829 30.4481 6.39043 30.4481 6.32134C30.4481 6.25139 30.4196 6.19439 30.3842 6.19439C30.3497 6.19439 30.3212 6.13653 30.3212 6.06744C30.3212 5.99749 30.2927 5.94049 30.2582 5.94049C30.2227 5.94049 30.1942 5.88263 30.1942 5.81268C30.1942 5.74359 30.1658 5.68573 30.1303 5.68573C30.0958 5.68573 30.0673 5.62874 30.0673 5.55878C30.0673 5.4897 30.0388 5.43184 30.0034 5.43184C29.9688 5.43184 29.9404 5.37484 29.9404 5.30489C29.9404 5.2358 29.9119 5.17794 29.8764 5.17794C29.8419 5.17794 29.8134 5.09849 29.8134 5.00177C29.8134 4.89813 29.7616 4.78759 29.6865 4.73405C29.6488 4.70292 29.618 4.66425 29.5961 4.62052C29.5743 4.5768 29.5618 4.52899 29.5595 4.48015C29.5572 4.43132 29.5447 4.38351 29.5229 4.33978C29.501 4.29606 29.4702 4.25739 29.4326 4.22626C29.3929 4.1938 29.361 4.15296 29.339 4.10666C29.3171 4.06037 29.3056 4.00978 29.3056 3.95854C29.3056 3.86096 29.2771 3.78151 29.2417 3.78151C29.2072 3.78151 29.1787 3.72451 29.1787 3.65456C29.1787 3.58547 29.1502 3.52761 29.1148 3.52761C29.0802 3.52761 29.0517 3.47061 29.0517 3.40066C29.0517 3.33071 29.0232 3.27371 28.9878 3.27371C28.9533 3.27371 28.9248 3.21671 28.9248 3.14676C28.9248 3.07681 28.8963 3.01981 28.8609 3.01981C28.8263 3.01981 28.7978 2.96282 28.7978 2.89287C28.7978 2.82291 28.7685 2.76592 28.7339 2.76592C28.6994 2.76592 28.6709 2.70892 28.6709 2.63897C28.6709 2.56902 28.6415 2.51202 28.607 2.51202C28.5724 2.51202 28.5439 2.45502 28.5439 2.38507C28.5439 2.31512 28.5154 2.25812 28.48 2.25812C28.4455 2.25812 28.417 2.20026 28.417 2.13117C28.417 2.06122 28.3876 2.00423 28.3531 2.00423C28.3185 2.00423 28.2892 1.94637 28.2892 1.87728C28.2892 1.80733 28.2607 1.75033 28.2261 1.75033C28.1916 1.75033 28.1622 1.69247 28.1622 1.62252C28.1622 1.55343 28.1337 1.49557 28.0992 1.49557C28.0646 1.49557 28.0353 1.43857 28.0353 1.36862C28.0353 1.29953 28.0068 1.24167 27.9722 1.24167C27.9377 1.24167 27.9083 1.19676 27.9083 1.14236C27.9083 0.874643 27.8133 0.860826 25.929 0.865144L24.1309 0.868598L23.9885 1.02145ZM96.7291 2.29439C96.7291 3.45161 96.7463 3.74523 96.8197 3.81778C96.8957 3.89377 97.4061 3.90845 99.9943 3.90845H103.077V19.5266H106.379V3.90845H112.982V0.860826H96.7291V2.29439ZM115.902 10.1937V19.5266H130.504V16.6068H119.33V11.6532H124.028C128.684 11.6532 128.726 11.6523 128.726 11.5262C128.726 11.4563 128.755 11.3993 128.79 11.3993C128.83 11.3993 128.853 11.0392 128.853 10.4467C128.853 9.85431 128.83 9.49419 128.79 9.49419C128.699 9.49419 128.711 9.25756 128.806 9.21438C128.87 9.18416 128.87 9.16948 128.806 9.14011C128.762 9.11939 128.726 9.01921 128.726 8.91817V8.7325H119.33V3.90932H130.123V0.860826H115.902V10.1937ZM68.1596 3.84541C68.1596 3.88168 68.3496 3.90845 68.6044 3.90845C68.8583 3.90845 69.0483 3.93609 69.0483 3.97236C69.0483 4.0069 69.1623 4.0354 69.3022 4.0354C69.4421 4.0354 69.556 4.0639 69.556 4.09931C69.556 4.13385 69.6424 4.16235 69.746 4.16235C69.8514 4.16235 69.9369 4.19085 69.9369 4.22626C69.9369 4.2608 70.0233 4.2893 70.1269 4.2893C70.2322 4.2893 70.3186 4.3178 70.3186 4.35321C70.3186 4.38775 70.3756 4.41625 70.4455 4.41625C70.5146 4.41625 70.5725 4.44475 70.5725 4.48015C70.5725 4.5147 70.6295 4.5432 70.6995 4.5432C70.7685 4.5432 70.8264 4.57169 70.8264 4.6071C70.8264 4.64165 70.8765 4.67015 70.9387 4.67015C71.0008 4.67015 71.0933 4.72714 71.1433 4.79709C71.1943 4.86704 71.2737 4.92404 71.3212 4.92404C71.3687 4.92404 71.5173 5.0389 71.6511 5.17794C71.7859 5.31784 71.9275 5.43184 71.9663 5.43184C72.0579 5.43184 72.4767 5.85154 72.4767 5.94308C72.4767 5.98195 72.5907 6.12358 72.7306 6.25743C72.8705 6.39129 72.9845 6.54069 72.9845 6.58733C72.9845 6.63482 73.0415 6.71514 73.1115 6.76523C73.1814 6.81618 73.2384 6.90772 73.2384 6.9699C73.2384 7.03208 73.2669 7.08217 73.3023 7.08217C73.3369 7.08217 73.3654 7.14003 73.3654 7.20998C73.3654 7.27907 73.3939 7.33693 73.4293 7.33693C73.4638 7.33693 73.4923 7.39392 73.4923 7.46388C73.4923 7.53296 73.5208 7.59082 73.5562 7.59082C73.5908 7.59082 73.6193 7.67718 73.6193 7.78081C73.6193 7.88617 73.6478 7.97167 73.6832 7.97167C73.7177 7.97167 73.7462 8.05803 73.7462 8.16166C73.7462 8.26702 73.7747 8.35251 73.8101 8.35251C73.8447 8.35251 73.8732 8.46651 73.8732 8.60641C73.8732 8.74631 73.9017 8.86031 73.9371 8.86031C73.9716 8.86031 74.0001 9.02957 74.0001 9.24115C74.0001 9.45273 74.0286 9.622 74.064 9.622C74.102 9.622 74.1271 9.85517 74.1271 10.1937C74.1271 10.5322 74.1012 10.7654 74.064 10.7654C74.0277 10.7654 74.0001 10.9554 74.0001 11.2093C74.0001 11.4632 73.9733 11.654 73.9371 11.654C73.9025 11.654 73.8732 11.768 73.8732 11.9079C73.8732 12.0478 73.8447 12.1618 73.8101 12.1618C73.7756 12.1618 73.7462 12.2482 73.7462 12.3518C73.7462 12.4572 73.7177 12.5427 73.6832 12.5427C73.6486 12.5427 73.6193 12.5997 73.6193 12.6696C73.6193 12.7396 73.5908 12.7966 73.5562 12.7966C73.5217 12.7966 73.4923 12.8829 73.4923 12.9866C73.4923 13.0919 73.4638 13.1774 73.4293 13.1774C73.3947 13.1774 73.3654 13.2292 73.3654 13.2906C73.3654 13.3527 73.3084 13.4443 73.2384 13.4952C73.1693 13.5453 73.1115 13.6308 73.1115 13.6852C73.1115 13.7396 73.0545 13.826 72.9845 13.8752C72.9154 13.927 72.8576 14.0047 72.8576 14.0497C72.8576 14.1567 71.6779 15.3364 71.5708 15.3364C71.5259 15.3364 71.4482 15.3934 71.3981 15.4634C71.3463 15.5324 71.2547 15.5903 71.1926 15.5903C71.1304 15.5903 71.0803 15.6188 71.0803 15.6533C71.0803 15.6879 71.0285 15.7173 70.9672 15.7173C70.905 15.7173 70.8126 15.7743 70.7625 15.8442C70.7124 15.9133 70.62 15.9712 70.5578 15.9712C70.4956 15.9712 70.4455 15.9997 70.4455 16.0342C70.4455 16.0687 70.3592 16.0981 70.2547 16.0981C70.1502 16.0981 70.0647 16.1266 70.0647 16.1611C70.0647 16.1957 70.0068 16.225 69.9369 16.225C69.8678 16.225 69.8099 16.2535 69.8099 16.2881C69.8099 16.3226 69.696 16.352 69.556 16.352C69.417 16.352 69.3022 16.3805 69.3022 16.415C69.3022 16.4496 69.1597 16.4789 68.9852 16.4789C68.8099 16.4789 68.6674 16.5074 68.6674 16.542C68.6674 16.5826 68.265 16.6059 67.5879 16.6059C66.9109 16.6059 66.5084 16.5826 66.5084 16.5429C66.5084 16.5083 66.3659 16.4789 66.1915 16.4789C66.017 16.4789 65.8737 16.4504 65.8737 16.415C65.8737 16.3805 65.7597 16.352 65.6198 16.352C65.4807 16.352 65.3659 16.3235 65.3659 16.289C65.3659 16.2535 65.3089 16.225 65.2389 16.225C65.1698 16.225 65.112 16.1966 65.112 16.1611C65.112 16.1266 65.0265 16.0981 64.922 16.0981C64.8166 16.0981 64.732 16.0696 64.732 16.0342C64.732 15.9997 64.6741 15.9712 64.6042 15.9712C64.5351 15.9712 64.4772 15.9427 64.4772 15.9072C64.4772 15.8727 64.4263 15.8442 64.365 15.8442C64.3019 15.8442 64.2095 15.7872 64.1603 15.7173C64.1094 15.6473 64.0239 15.5903 63.9695 15.5903C63.9151 15.5903 63.8296 15.5333 63.7795 15.4634C63.7285 15.3934 63.6499 15.3364 63.605 15.3364C63.4988 15.3364 62.3183 14.1567 62.3183 14.0497C62.3183 14.0047 62.2613 13.9262 62.1913 13.8761C62.1222 13.826 62.0652 13.7336 62.0652 13.6714C62.0652 13.6092 62.0359 13.5591 62.0013 13.5591C61.9668 13.5591 61.9383 13.5073 61.9383 13.446C61.9383 13.3838 61.8804 13.2914 61.8105 13.2413C61.7414 13.1904 61.6835 13.0988 61.6835 13.0367C61.6835 12.9745 61.655 12.9244 61.6205 12.9244C61.5859 12.9244 61.5566 12.838 61.5566 12.7335C61.5566 12.6282 61.5281 12.5435 61.4935 12.5435C61.459 12.5435 61.4296 12.4572 61.4296 12.3527C61.4296 12.2473 61.4011 12.1618 61.3666 12.1618C61.332 12.1618 61.3027 12.0755 61.3027 11.9718C61.3027 11.8665 61.2742 11.781 61.2396 11.781C61.2042 11.781 61.1757 11.6117 61.1757 11.4001C61.1757 11.1886 61.1481 11.0193 61.1127 11.0193C61.0738 11.0193 61.0488 10.7231 61.0488 10.2567C61.0488 9.79213 61.0738 9.49505 61.1127 9.49505C61.1472 9.49505 61.1757 9.32579 61.1757 9.11507C61.1757 8.90262 61.2042 8.73336 61.2396 8.73336C61.2742 8.73336 61.3027 8.61937 61.3027 8.47946C61.3027 8.33956 61.3312 8.22557 61.3666 8.22557C61.4011 8.22557 61.4296 8.13921 61.4296 8.03557C61.4296 7.93022 61.4581 7.84472 61.4935 7.84472C61.5281 7.84472 61.5566 7.78772 61.5566 7.71777C61.5566 7.64868 61.5859 7.59082 61.6205 7.59082C61.655 7.59082 61.6835 7.53383 61.6835 7.46388C61.6835 7.39392 61.7129 7.33693 61.7474 7.33693C61.782 7.33693 61.8105 7.27993 61.8105 7.20998C61.8105 7.14003 61.839 7.08303 61.8744 7.08303C61.9089 7.08303 61.9374 7.03121 61.9374 6.9699C61.9374 6.90772 61.9953 6.81618 62.0652 6.76523C62.1343 6.71514 62.1913 6.63482 62.1913 6.58646C62.1913 6.5381 62.2777 6.41892 62.3822 6.32134C62.4867 6.22289 62.5722 6.11062 62.5722 6.0709C62.5722 5.97935 63.1188 5.43184 63.2112 5.43184C63.2492 5.43184 63.3908 5.31784 63.5247 5.17794C63.6594 5.0389 63.808 4.92404 63.8555 4.92404C63.903 4.92404 63.9824 4.86704 64.0334 4.79709C64.0835 4.72801 64.175 4.67015 64.2372 4.67015C64.2993 4.67015 64.3503 4.64165 64.3503 4.6071C64.3503 4.57256 64.4073 4.5432 64.4772 4.5432C64.5472 4.5432 64.6042 4.5147 64.6042 4.48015C64.6042 4.44561 64.6612 4.41625 64.7311 4.41625C64.8011 4.41625 64.8581 4.38775 64.8581 4.35321C64.8581 4.31866 64.9445 4.2893 65.0481 4.2893C65.1534 4.2893 65.2389 4.2608 65.2389 4.22626C65.2389 4.19171 65.3253 4.16235 65.4289 4.16235C65.5343 4.16235 65.6198 4.13385 65.6198 4.09931C65.6198 4.06476 65.7346 4.0354 65.8737 4.0354C66.0136 4.0354 66.1276 4.0069 66.1276 3.97236C66.1276 3.93609 66.3184 3.90845 66.5723 3.90845C66.8262 3.90845 67.0171 3.88168 67.0171 3.84541C67.0171 3.80741 67.2503 3.78151 67.5879 3.78151C67.9264 3.78151 68.1596 3.80741 68.1596 3.84541ZM25.9125 4.38084C25.9635 4.4321 25.9958 4.49902 26.0041 4.57083C26.0041 4.62524 26.0326 4.67015 26.0671 4.67015C26.1017 4.67015 26.131 4.7565 26.131 4.86014C26.131 4.96549 26.1595 5.05099 26.1941 5.05099C26.2286 5.05099 26.258 5.10799 26.258 5.17794C26.258 5.24789 26.2865 5.30489 26.3219 5.30489C26.3564 5.30489 26.3849 5.36275 26.3849 5.43184C26.3849 5.50179 26.4134 5.55878 26.448 5.55878C26.4834 5.55878 26.5119 5.61665 26.5119 5.68573C26.5119 5.75568 26.5404 5.81268 26.5758 5.81268C26.6103 5.81268 26.6388 5.87054 26.6388 5.94049C26.6388 6.00958 26.6673 6.06744 26.7027 6.06744C26.7373 6.06744 26.7658 6.12444 26.7658 6.19439C26.7658 6.26348 26.7943 6.32134 26.8297 6.32134C26.8642 6.32134 26.8927 6.37834 26.8927 6.44829C26.8927 6.51737 26.9212 6.57524 26.9566 6.57524C26.9912 6.57524 27.0197 6.66073 27.0197 6.76523C27.0197 6.87059 27.0482 6.95522 27.0836 6.95522C27.1181 6.95522 27.1466 7.01308 27.1466 7.08303C27.1466 7.15212 27.1751 7.20998 27.2105 7.20998C27.2451 7.20998 27.2736 7.26698 27.2736 7.33693C27.2736 7.40601 27.3021 7.46388 27.3375 7.46388C27.372 7.46388 27.4005 7.52087 27.4005 7.59082C27.4005 7.65991 27.429 7.71777 27.4644 7.71777C27.499 7.71777 27.5275 7.80413 27.5275 7.90776C27.5275 8.01312 27.556 8.09862 27.5914 8.09862C27.6259 8.09862 27.6544 8.15561 27.6544 8.22557C27.6544 8.29465 27.6829 8.35251 27.7183 8.35251C27.7529 8.35251 27.7814 8.40951 27.7814 8.47946C27.7814 8.54941 27.8099 8.60641 27.8453 8.60641C27.8798 8.60641 27.9083 8.66341 27.9083 8.73336C27.9083 8.80331 27.9368 8.86031 27.9722 8.86031C28.0068 8.86031 28.0353 8.91731 28.0353 8.98726C28.0353 9.05721 28.0646 9.11421 28.0992 9.11421C28.1337 9.11421 28.1631 9.1712 28.1631 9.24115C28.1631 9.3111 28.1907 9.3681 28.2261 9.3681C28.2607 9.3681 28.2892 9.4251 28.2892 9.49505C28.2892 9.565 28.3185 9.622 28.3531 9.622C28.3876 9.622 28.417 9.70836 28.417 9.81199C28.417 9.91735 28.4455 10.0028 28.48 10.0028C28.5146 10.0028 28.5439 10.0607 28.5439 10.1298C28.5439 10.1997 28.5724 10.2576 28.607 10.2576C28.6415 10.2576 28.6709 10.3146 28.6709 10.3846C28.6709 10.4536 28.6994 10.5115 28.7339 10.5115C28.7685 10.5115 28.7978 10.5685 28.7978 10.6385C28.7978 10.7075 28.8263 10.7654 28.8609 10.7654C28.8954 10.7654 28.9248 10.8509 28.9248 10.9554C28.9248 11.0599 28.9533 11.1454 28.9878 11.1454C29.0224 11.1454 29.0517 11.2032 29.0517 11.2732C29.0517 11.3423 29.0802 11.4001 29.1148 11.4001C29.1493 11.4001 29.1787 11.4571 29.1787 11.5271C29.1787 11.5962 29.2072 11.654 29.2417 11.654C29.2762 11.654 29.3056 11.711 29.3056 11.781C29.3056 11.8501 29.3341 11.9079 29.3687 11.9079C29.4032 11.9079 29.4326 11.9649 29.4326 12.0349C29.4326 12.104 29.4611 12.1618 29.4956 12.1618C29.5301 12.1618 29.5595 12.2188 29.5595 12.2888C29.5595 12.414 29.5163 12.4157 25.941 12.4157C22.364 12.4157 22.3226 12.414 22.3226 12.2888C22.3226 12.2197 22.3502 12.1618 22.3856 12.1618C22.4202 12.1618 22.4487 12.1048 22.4487 12.0349C22.4487 11.9658 22.4772 11.9079 22.5126 11.9079C22.5471 11.9079 22.5756 11.8216 22.5756 11.7179C22.5756 11.6126 22.6041 11.5271 22.6395 11.5271C22.6741 11.5271 22.7026 11.4701 22.7026 11.4001C22.7026 11.3302 22.7311 11.2732 22.7665 11.2732C22.801 11.2732 22.8295 11.2162 22.8295 11.1462C22.8295 11.0763 22.858 11.0193 22.8934 11.0193C22.928 11.0193 22.9565 10.9329 22.9565 10.8293C22.9565 10.7239 22.985 10.6385 23.0204 10.6385C23.0549 10.6385 23.0834 10.5815 23.0834 10.5115C23.0834 10.4416 23.1119 10.3846 23.1473 10.3846C23.1819 10.3846 23.2104 10.3267 23.2104 10.2576C23.2104 10.1877 23.2389 10.1298 23.2743 10.1298C23.3088 10.1298 23.3373 10.0443 23.3373 9.9398C23.3373 9.83531 23.3658 9.74981 23.4012 9.74981C23.4358 9.74981 23.4643 9.69195 23.4643 9.622C23.4643 9.55291 23.4927 9.49505 23.5282 9.49505C23.5627 9.49505 23.5912 9.40956 23.5912 9.30506C23.5912 9.20057 23.6197 9.11507 23.6551 9.11507C23.6896 9.11507 23.7181 9.05721 23.7181 8.98726C23.7181 8.91817 23.7475 8.86031 23.7821 8.86031C23.8166 8.86031 23.8451 8.80331 23.8451 8.73336C23.8451 8.66427 23.8736 8.60641 23.909 8.60641C23.9435 8.60641 23.972 8.52005 23.972 8.41642C23.972 8.31106 24.0014 8.22643 24.036 8.22643C24.0705 8.22643 24.0999 8.16857 24.0999 8.09862C24.0999 8.02953 24.1284 7.97167 24.1629 7.97167C24.1974 7.97167 24.2259 7.91467 24.2259 7.84472C24.2259 7.77563 24.2553 7.71777 24.2898 7.71777C24.3244 7.71777 24.3538 7.66077 24.3538 7.59082C24.3538 7.52087 24.3823 7.46388 24.4168 7.46388C24.4513 7.46388 24.4807 7.37752 24.4807 7.27388C24.4807 7.16853 24.5092 7.08303 24.5437 7.08303C24.5783 7.08303 24.6076 7.02603 24.6076 6.95608C24.6076 6.88613 24.6361 6.82913 24.6707 6.82913C24.7052 6.82913 24.7346 6.77214 24.7346 6.70218C24.7346 6.63223 24.7631 6.57524 24.7976 6.57524C24.8322 6.57524 24.8615 6.48888 24.8615 6.38524C24.8615 6.27989 24.89 6.19439 24.9246 6.19439C24.9591 6.19439 24.9885 6.13653 24.9885 6.06744C24.9885 5.99749 25.017 5.94049 25.0515 5.94049C25.0861 5.94049 25.1154 5.85413 25.1154 5.74964C25.1154 5.64514 25.1439 5.55965 25.1785 5.55965C25.213 5.55965 25.2424 5.50179 25.2424 5.43184C25.2424 5.36275 25.2709 5.30489 25.3054 5.30489C25.34 5.30489 25.3693 5.24789 25.3693 5.17794C25.3693 5.10885 25.3978 5.05099 25.4324 5.05099C25.4669 5.05099 25.4963 4.99399 25.4963 4.92404C25.4963 4.85495 25.5248 4.79709 25.5593 4.79709C25.5939 4.79709 25.6232 4.72455 25.6232 4.6356C25.6232 4.50088 25.7269 4.30053 25.802 4.29189C25.8444 4.3139 25.8822 4.3438 25.9134 4.37998L25.9125 4.38084Z" fill="#050038"/>
</svg>
